<svg width="1470" height="1050" viewBox="0 0 1470 1050" fill="none" xmlns="http://www.w3.org/2000/svg">
<path d="M106.507 745.007C76.5171 661.021 119.407 559.885 213.232 464.223C307.038 368.58 451.673 278.506 624.908 216.691C798.143 154.876 967.144 133.036 1100.33 147.682C1233.55 162.33 1330.81 213.457 1360.8 297.443C1390.79 381.428 1347.9 482.565 1254.07 578.227C1160.27 673.87 1015.63 763.943 842.396 825.758C669.161 887.573 500.161 909.413 366.973 894.768C233.758 880.12 136.497 828.993 106.507 745.007Z" stroke="#ED4440" stroke-opacity="0.4" stroke-width="0.717874"/>
<path d="M383.654 594.029C362.157 527.365 392.444 450.897 458.968 381.128C525.48 311.371 628.157 248.384 751.236 208.723C874.316 169.062 994.462 160.247 1089.21 178.041C1183.97 195.838 1253.23 240.228 1274.72 306.892C1296.22 373.555 1265.93 450.023 1199.41 519.792C1132.9 589.549 1030.22 652.536 907.142 692.197C784.063 731.858 663.917 740.673 569.172 722.879C474.412 705.082 405.151 660.692 383.654 594.029Z" stroke="#ED4440" stroke-opacity="0.5" stroke-width="0.717874"/>
<path d="M507.386 540.77C489.502 485.31 513.291 422.139 566.37 364.814C619.441 307.499 701.739 256.095 800.692 224.209C899.644 192.322 996.481 186.002 1073.05 201.544C1149.62 217.088 1205.84 254.478 1223.72 309.939C1241.61 365.4 1217.82 428.57 1164.74 485.895C1111.67 543.21 1029.37 594.614 930.419 626.501C831.467 658.387 734.63 664.707 658.065 649.165C581.487 633.621 525.271 596.231 507.386 540.77Z" stroke="#ED4440" stroke-opacity="0.5" stroke-width="0.717874"/>
<ellipse cx="39.7969" cy="39.7964" rx="39.7969" ry="39.7964" transform="matrix(0.835071 0.550142 -0.550441 0.834874 962.967 298.143)" fill="#1A1313"/>
<ellipse cx="39.7969" cy="39.7964" rx="39.7969" ry="39.7964" transform="matrix(0.835071 0.550142 -0.550441 0.834874 962.967 298.143)" fill="url(#paint0_linear_1_30677)"/>
<path d="M975.115 369.874L987.282 368.02C987.378 367.396 987.219 366.829 986.803 366.317C986.387 365.806 985.849 365.516 985.189 365.445L975.085 363.883C974.768 363.866 974.386 363.775 973.938 363.61C973.49 363.445 973.039 363.249 972.584 363.021L969.64 361.616C969.28 361.466 969.036 361.187 968.907 360.778C968.779 360.369 968.807 359.984 968.99 359.623C969.172 359.273 969.454 359.032 969.834 358.902C970.214 358.771 970.587 358.814 970.95 359.03L974.199 360.634C974.403 360.761 974.645 360.869 974.926 360.958C975.207 361.047 975.516 361.104 975.852 361.129L978.47 361.533L978.466 361.533C978.568 360.878 978.438 360.275 978.076 359.724C977.714 359.174 977.241 358.725 976.655 358.379L967.058 352.921L963.643 352.393L961.905 363.618L975.115 369.874ZM973.475 373.356L961.276 367.687C960.86 368.516 960.185 369.058 959.251 369.313C958.318 369.568 957.399 369.625 956.494 369.486L953.641 369.044C952.431 368.857 951.463 368.267 950.735 367.273C950.007 366.279 949.737 365.177 949.924 363.968L951.915 351.107C952.102 349.898 952.693 348.929 953.687 348.201C954.682 347.474 955.784 347.203 956.993 347.39L967.519 349.017C967.779 349.058 968.035 349.121 968.288 349.208C968.54 349.295 968.8 349.407 969.066 349.544L978.537 354.887C979.943 355.711 981.012 356.746 981.745 357.993C982.478 359.24 982.726 360.627 982.49 362.155L985.624 362.639C987.508 362.931 989.029 363.701 990.186 364.949C991.343 366.197 991.782 367.726 991.502 369.534C991.412 370.118 991.166 370.62 990.766 371.042C990.365 371.463 989.919 371.716 989.427 371.799L976.001 373.746C975.576 373.776 975.146 373.758 974.712 373.691C974.278 373.624 973.866 373.512 973.475 373.356ZM953.72 365.13L957.556 365.723L959.714 351.785L955.878 351.192L953.72 365.13ZM982.695 350.933C982.125 350.845 981.603 350.664 981.13 350.391C980.656 350.119 980.227 349.737 979.842 349.246L975.37 343.479C974.559 342.423 973.9 341.298 973.39 340.104C972.88 338.91 972.726 337.658 972.929 336.349C973.209 334.541 974.071 333.094 975.517 332.008C976.962 330.923 978.605 330.522 980.445 330.807C981.474 330.966 982.38 331.353 983.163 331.969C983.946 332.585 984.651 333.293 985.277 334.092C986.116 333.519 987.012 333.059 987.964 332.712C988.917 332.364 989.903 332.269 990.924 332.427C992.717 332.704 994.15 333.58 995.223 335.055C996.296 336.53 996.693 338.171 996.413 339.98C996.212 341.274 995.676 342.417 994.804 343.407C993.933 344.397 992.959 345.272 991.883 346.032L985.876 350.179C985.393 350.536 984.876 350.771 984.326 350.886C983.776 351 983.233 351.016 982.695 350.933ZM983.23 347.472L989.488 343.166C990.21 342.711 990.862 342.19 991.446 341.602C992.03 341.014 992.387 340.305 992.515 339.473C992.632 338.719 992.484 338.024 992.072 337.388C991.659 336.753 991.081 336.378 990.338 336.263C989.745 336.171 989.179 336.26 988.64 336.527C988.101 336.795 987.591 337.119 987.11 337.498L986.172 338.164C985.673 338.497 985.148 338.621 984.597 338.536C984.046 338.451 983.598 338.176 983.252 337.712L982.491 336.774C982.151 336.29 981.773 335.837 981.357 335.413C980.941 334.99 980.436 334.732 979.843 334.641C979.1 334.526 978.436 334.709 977.85 335.19C977.265 335.671 976.914 336.289 976.797 337.043C976.673 337.847 976.808 338.623 977.203 339.372C977.598 340.12 978.064 340.826 978.6 341.488L983.23 347.472Z" fill="#1A1313"/>
<ellipse cx="29.624" cy="29.6241" rx="29.624" ry="29.6241" transform="matrix(0.653015 -0.757246 0.757587 0.652849 774.993 490.471)" fill="url(#paint1_linear_1_30677)"/>
<path d="M811.094 504.631C810.2 505.075 809.283 505.139 808.341 504.823C807.399 504.507 806.706 503.902 806.262 503.008L797.692 485.776C797.243 484.872 797.175 483.947 797.488 482.999C797.801 482.051 798.405 481.355 799.298 480.911L822.029 469.616C822.933 469.167 823.86 469.102 824.812 469.422C825.764 469.742 826.464 470.353 826.913 471.256L835.483 488.488C835.927 489.382 835.988 490.301 835.665 491.246C835.342 492.19 834.729 492.887 833.825 493.336L811.094 504.631ZM809.49 501.404L832.221 490.109L823.651 472.877L800.92 484.172L809.49 501.404ZM811.764 494.752L821.422 489.953C821.722 489.804 821.922 489.581 822.02 489.284C822.119 488.987 822.095 488.692 821.949 488.399C821.803 488.105 821.583 487.91 821.289 487.814C820.995 487.717 820.698 487.744 820.397 487.893L810.74 492.692C810.439 492.841 810.24 493.064 810.141 493.361C810.043 493.657 810.066 493.952 810.212 494.246C810.358 494.539 810.578 494.734 810.872 494.831C811.166 494.927 811.464 494.901 811.764 494.752ZM813.836 488.585L823.494 483.786C823.794 483.637 823.993 483.414 824.092 483.117C824.191 482.821 824.167 482.526 824.021 482.232C823.875 481.939 823.655 481.744 823.361 481.647C823.067 481.551 822.77 481.577 822.469 481.726L812.812 486.525C812.511 486.674 812.312 486.897 812.213 487.194C812.115 487.491 812.138 487.786 812.284 488.079C812.43 488.373 812.65 488.568 812.944 488.664C813.238 488.76 813.536 488.734 813.836 488.585ZM809.709 490.636C810.002 490.49 810.197 490.269 810.293 489.974C810.389 489.679 810.364 489.384 810.218 489.091C810.072 488.797 809.851 488.603 809.556 488.507C809.261 488.411 808.966 488.436 808.672 488.582C808.379 488.728 808.184 488.948 808.089 489.244C807.993 489.539 808.018 489.833 808.164 490.127C808.31 490.42 808.53 490.615 808.826 490.711C809.121 490.806 809.415 490.781 809.709 490.636ZM825.561 487.896C825.854 487.75 826.049 487.53 826.145 487.234C826.241 486.939 826.216 486.645 826.07 486.351C825.924 486.058 825.703 485.863 825.408 485.767C825.112 485.672 824.818 485.697 824.524 485.843C824.231 485.988 824.036 486.209 823.94 486.504C823.845 486.799 823.87 487.094 824.016 487.387C824.162 487.681 824.382 487.875 824.678 487.971C824.973 488.067 825.267 488.042 825.561 487.896Z" fill="#1A1313"/>
<path d="M811.094 504.631C810.2 505.075 809.283 505.139 808.341 504.823C807.399 504.507 806.706 503.902 806.262 503.008L797.692 485.776C797.243 484.872 797.175 483.947 797.488 482.999C797.801 482.051 798.405 481.355 799.298 480.911L822.029 469.616C822.933 469.167 823.86 469.102 824.812 469.422C825.764 469.742 826.464 470.353 826.913 471.256L835.483 488.488C835.927 489.382 835.988 490.301 835.665 491.246C835.342 492.19 834.729 492.887 833.825 493.336L811.094 504.631ZM809.49 501.404L832.221 490.109L823.651 472.877L800.92 484.172L809.49 501.404ZM811.764 494.752L821.422 489.953C821.722 489.804 821.922 489.581 822.02 489.284C822.119 488.987 822.095 488.692 821.949 488.399C821.803 488.105 821.583 487.91 821.289 487.814C820.995 487.717 820.698 487.744 820.397 487.893L810.74 492.692C810.439 492.841 810.24 493.064 810.141 493.361C810.043 493.657 810.066 493.952 810.212 494.246C810.358 494.539 810.578 494.734 810.872 494.831C811.166 494.927 811.464 494.901 811.764 494.752ZM813.836 488.585L823.494 483.786C823.794 483.637 823.993 483.414 824.092 483.117C824.191 482.821 824.167 482.526 824.021 482.232C823.875 481.939 823.655 481.744 823.361 481.647C823.067 481.551 822.77 481.577 822.469 481.726L812.812 486.525C812.511 486.674 812.312 486.897 812.213 487.194C812.115 487.491 812.138 487.786 812.284 488.079C812.43 488.373 812.65 488.568 812.944 488.664C813.238 488.76 813.536 488.734 813.836 488.585ZM809.709 490.636C810.002 490.49 810.197 490.269 810.293 489.974C810.389 489.679 810.364 489.384 810.218 489.091C810.072 488.797 809.851 488.603 809.556 488.507C809.261 488.411 808.966 488.436 808.672 488.582C808.379 488.728 808.184 488.948 808.089 489.244C807.993 489.539 808.018 489.833 808.164 490.127C808.31 490.42 808.53 490.615 808.826 490.711C809.121 490.806 809.415 490.781 809.709 490.636ZM825.561 487.896C825.854 487.75 826.049 487.53 826.145 487.234C826.241 486.939 826.216 486.645 826.07 486.351C825.924 486.058 825.703 485.863 825.408 485.767C825.112 485.672 824.818 485.697 824.524 485.843C824.231 485.988 824.036 486.209 823.94 486.504C823.845 486.799 823.87 487.094 824.016 487.387C824.162 487.681 824.382 487.875 824.678 487.971C824.973 488.067 825.267 488.042 825.561 487.896Z" fill="#1A1313"/>
<circle cx="1157.03" cy="272.521" r="10" fill="#ED4440"/>
<circle cx="578.352" cy="491.32" r="10" fill="#B77BF2"/>
<path d="M1005.32 511.892C1048.9 488.195 1082.69 457.929 1101.49 425.74" stroke="url(#paint2_linear_1_30677)" stroke-width="12" stroke-linecap="round"/>
<path d="M998.907 271.226L998.142 276.167L998.142 276.167L998.907 271.226ZM1074.88 299.934L1077.81 295.887L1074.88 299.934ZM1106.77 354.063C1107.37 356.757 1110.05 358.452 1112.74 357.848C1115.44 357.245 1117.13 354.571 1116.53 351.877L1106.77 354.063ZM900.086 277.657C934.749 272.027 968.295 271.541 998.142 276.167L999.672 266.285C968.639 261.476 934.025 262.014 898.481 267.787L900.086 277.657ZM998.142 276.167C1028.01 280.795 1053.2 290.388 1071.94 303.982L1077.81 295.887C1057.48 281.14 1030.68 271.092 999.672 266.285L998.142 276.167ZM1071.94 303.982C1090.65 317.541 1102.43 334.692 1106.77 354.063L1116.53 351.877C1111.58 329.803 1098.2 310.668 1077.81 295.887L1071.94 303.982Z" fill="url(#paint3_linear_1_30677)"/>
<path d="M657.071 491.684C633.578 418.83 715.859 327.12 840.85 286.843M925.926 550.669C880.135 565.425 834.964 571.23 794.95 569.081" stroke="url(#paint4_linear_1_30677)" stroke-width="10" stroke-linecap="round"/>
<path d="M830.385 242.983C948.365 204.965 1063.28 211.22 1132.04 252.296" stroke="#ED4440" stroke-width="10" stroke-linecap="round"/>
<path d="M830.387 242.988C687.495 289.033 586.198 385.167 578.813 473.078" stroke="url(#paint5_linear_1_30677)" stroke-width="10" stroke-linecap="round"/>
<path d="M586.754 520.883C601.404 566.314 645.458 600.35 709.801 615.947" stroke="url(#paint6_linear_1_30677)" stroke-width="15" stroke-linecap="round"/>
<path d="M1185.44 326.749C1215.05 418.573 1111.34 534.164 953.805 584.929" stroke="url(#paint7_linear_1_30677)" stroke-width="15" stroke-linecap="round"/>
<path d="M657.071 491.688C680.565 564.541 800.935 590.95 925.926 550.673" stroke="url(#paint8_linear_1_30677)" stroke-width="12" stroke-linecap="round"/>
<ellipse cx="26.3057" cy="26.2972" rx="26.3057" ry="26.2972" transform="matrix(0.975172 -0.221449 0.221835 0.975084 1207 148.293)" fill="url(#paint9_linear_1_30677)"/>
<path d="M1229.1 159.112C1228.36 160.24 1227.78 161.474 1227.37 162.812C1226.95 164.15 1226.75 165.554 1226.79 167.025C1226.77 167.499 1226.63 167.923 1226.36 168.296C1226.09 168.67 1225.73 168.902 1225.3 168.993C1224.86 169.085 1224.47 168.993 1224.11 168.719C1223.75 168.445 1223.57 168.089 1223.56 167.651C1223.48 165.802 1223.69 164.008 1224.19 162.27C1224.7 160.532 1225.45 158.901 1226.45 157.377C1227.4 155.91 1228.57 154.585 1229.95 153.403C1231.33 152.222 1232.89 151.302 1234.63 150.644C1235.03 150.497 1235.42 150.532 1235.81 150.75C1236.21 150.968 1236.46 151.285 1236.56 151.702C1236.67 152.118 1236.6 152.521 1236.38 152.911C1236.15 153.3 1235.83 153.577 1235.43 153.741C1234.06 154.271 1232.85 155.012 1231.8 155.963C1230.75 156.914 1229.85 157.963 1229.1 159.112ZM1238.58 169.208C1237.84 168.728 1237.39 168.069 1237.21 167.229C1237.03 166.389 1237.19 165.602 1237.67 164.868C1238.15 164.134 1238.81 163.67 1239.66 163.475C1240.52 163.28 1241.31 163.422 1242.04 163.902C1242.78 164.381 1243.24 165.057 1243.42 165.928C1243.6 166.799 1243.45 167.601 1242.97 168.335C1242.49 169.069 1241.82 169.518 1240.97 169.682C1240.11 169.845 1239.31 169.688 1238.58 169.208ZM1239.26 180.489C1239.5 180.113 1239.84 179.881 1240.26 179.793C1240.68 179.705 1241.08 179.783 1241.45 180.028C1241.83 180.273 1242.06 180.609 1242.16 181.036C1242.26 181.463 1242.19 181.867 1241.94 182.246C1240.83 183.774 1239.53 184.679 1238.03 184.961C1236.53 185.242 1235.15 184.972 1233.89 184.149C1232.7 183.374 1231.89 182.362 1231.46 181.113C1231.03 179.863 1230.92 178.655 1231.15 177.487C1231.42 176.244 1231.55 175.219 1231.53 174.411C1231.5 173.604 1231.26 172.486 1230.8 171.056C1230.2 169.347 1230 167.705 1230.19 166.129C1230.39 164.553 1231.04 162.927 1232.13 161.253C1233.69 158.865 1235.74 157.398 1238.27 156.85C1240.81 156.302 1243.27 156.808 1245.66 158.368C1248.01 159.904 1249.46 161.97 1250.01 164.566C1250.56 167.162 1250.07 169.701 1248.56 172.184C1248.31 172.56 1247.97 172.789 1247.54 172.869C1247.11 172.95 1246.71 172.868 1246.33 172.623C1245.96 172.378 1245.73 172.046 1245.64 171.626C1245.55 171.206 1245.63 170.808 1245.87 170.432C1246.88 168.727 1247.21 167.001 1246.86 165.256C1246.51 163.51 1245.53 162.112 1243.92 161.06C1242.35 160.034 1240.69 159.713 1238.95 160.098C1237.21 160.483 1235.83 161.452 1234.81 163.005C1233.96 164.303 1233.5 165.57 1233.42 166.805C1233.34 168.04 1233.61 169.522 1234.24 171.249C1234.59 172.206 1234.78 173.138 1234.79 174.045C1234.8 174.952 1234.71 176.011 1234.5 177.222C1234.3 178.24 1234.28 179.103 1234.46 179.809C1234.63 180.515 1235.02 181.061 1235.61 181.448C1236.16 181.805 1236.76 181.905 1237.43 181.75C1238.09 181.594 1238.7 181.174 1239.26 180.489Z" fill="#1A1313"/>
<path d="M1229.1 159.112C1228.36 160.24 1227.78 161.474 1227.37 162.812C1226.95 164.15 1226.75 165.554 1226.79 167.025C1226.77 167.499 1226.63 167.923 1226.36 168.296C1226.09 168.67 1225.73 168.902 1225.3 168.993C1224.86 169.085 1224.47 168.993 1224.11 168.719C1223.75 168.445 1223.57 168.089 1223.56 167.651C1223.48 165.802 1223.69 164.008 1224.19 162.27C1224.7 160.532 1225.45 158.901 1226.45 157.377C1227.4 155.91 1228.57 154.585 1229.95 153.403C1231.33 152.222 1232.89 151.302 1234.63 150.644C1235.03 150.497 1235.42 150.532 1235.81 150.75C1236.21 150.968 1236.46 151.285 1236.56 151.702C1236.67 152.118 1236.6 152.521 1236.38 152.911C1236.15 153.3 1235.83 153.577 1235.43 153.741C1234.06 154.271 1232.85 155.012 1231.8 155.963C1230.75 156.914 1229.85 157.963 1229.1 159.112ZM1238.58 169.208C1237.84 168.728 1237.39 168.069 1237.21 167.229C1237.03 166.389 1237.19 165.602 1237.67 164.868C1238.15 164.134 1238.81 163.67 1239.66 163.475C1240.52 163.28 1241.31 163.422 1242.04 163.902C1242.78 164.381 1243.24 165.057 1243.42 165.928C1243.6 166.799 1243.45 167.601 1242.97 168.335C1242.49 169.069 1241.82 169.518 1240.97 169.682C1240.11 169.845 1239.31 169.688 1238.58 169.208ZM1239.26 180.489C1239.5 180.113 1239.84 179.881 1240.26 179.793C1240.68 179.705 1241.08 179.783 1241.45 180.028C1241.83 180.273 1242.06 180.609 1242.16 181.036C1242.26 181.463 1242.19 181.867 1241.94 182.246C1240.83 183.774 1239.53 184.679 1238.03 184.961C1236.53 185.242 1235.15 184.972 1233.89 184.149C1232.7 183.374 1231.89 182.362 1231.46 181.113C1231.03 179.863 1230.92 178.655 1231.15 177.487C1231.42 176.244 1231.55 175.219 1231.53 174.411C1231.5 173.604 1231.26 172.486 1230.8 171.056C1230.2 169.347 1230 167.705 1230.19 166.129C1230.39 164.553 1231.04 162.927 1232.13 161.253C1233.69 158.865 1235.74 157.398 1238.27 156.85C1240.81 156.302 1243.27 156.808 1245.66 158.368C1248.01 159.904 1249.46 161.97 1250.01 164.566C1250.56 167.162 1250.07 169.701 1248.56 172.184C1248.31 172.56 1247.97 172.789 1247.54 172.869C1247.11 172.95 1246.71 172.868 1246.33 172.623C1245.96 172.378 1245.73 172.046 1245.64 171.626C1245.55 171.206 1245.63 170.808 1245.87 170.432C1246.88 168.727 1247.21 167.001 1246.86 165.256C1246.51 163.51 1245.53 162.112 1243.92 161.06C1242.35 160.034 1240.69 159.713 1238.95 160.098C1237.21 160.483 1235.83 161.452 1234.81 163.005C1233.96 164.303 1233.5 165.57 1233.42 166.805C1233.34 168.04 1233.61 169.522 1234.24 171.249C1234.59 172.206 1234.78 173.138 1234.79 174.045C1234.8 174.952 1234.71 176.011 1234.5 177.222C1234.3 178.24 1234.28 179.103 1234.46 179.809C1234.63 180.515 1235.02 181.061 1235.61 181.448C1236.16 181.805 1236.76 181.905 1237.43 181.75C1238.09 181.594 1238.7 181.174 1239.26 180.489Z" fill="#1A1313"/>
<circle cx="1062.11" cy="744.145" r="65" fill="#1A1313"/>
<circle cx="1062.11" cy="744.145" r="65" fill="url(#paint10_linear_1_30677)"/>
<path d="M1049.16 777.276C1047.89 776.636 1046.79 775.795 1045.86 774.752C1044.93 773.71 1044.26 772.513 1043.83 771.161L1037.24 750.904C1036.88 749.791 1036.95 748.746 1037.45 747.767C1037.95 746.789 1038.74 746.12 1039.84 745.76L1039.92 745.733C1041.11 745.347 1042.28 745.279 1043.43 745.527C1044.57 745.775 1045.61 746.331 1046.55 747.194L1051.06 751.236L1063.07 727.464C1063.53 726.559 1064.24 725.963 1065.19 725.678C1066.15 725.392 1067.09 725.48 1068 725.942C1068.89 726.393 1069.49 727.078 1069.78 727.997C1070.08 728.916 1070 729.828 1069.54 730.733L1055.09 759.337C1054.62 760.269 1053.86 760.832 1052.82 761.024C1051.77 761.216 1050.88 760.959 1050.13 760.253L1046.78 757.193L1050.65 768.963C1050.74 769.381 1050.94 769.745 1051.23 770.056C1051.52 770.368 1051.91 770.644 1052.38 770.885L1072.18 780.888C1073.89 781.749 1075.64 781.88 1077.45 781.28C1079.26 780.681 1080.59 779.535 1081.45 777.842L1087.55 765.761C1088.01 764.856 1088.7 764.254 1089.63 763.954C1090.56 763.655 1091.49 763.736 1092.4 764.198C1093.31 764.659 1093.91 765.347 1094.2 766.261C1094.49 767.175 1094.4 768.085 1093.94 768.99L1087.84 781.071C1086.05 784.622 1083.34 786.993 1079.71 788.184C1076.09 789.375 1072.5 789.073 1068.95 787.279L1049.16 777.276ZM1066.38 757.902C1065.48 757.445 1064.87 756.764 1064.56 755.859C1064.24 754.954 1064.32 754.031 1064.8 753.09L1069.92 742.958C1070.38 742.053 1071.07 741.449 1071.99 741.146C1072.91 740.844 1073.83 740.921 1074.73 741.377C1075.63 741.834 1076.24 742.523 1076.54 743.446C1076.85 744.368 1076.77 745.282 1076.31 746.187L1071.19 756.319C1070.72 757.261 1070.02 757.874 1069.11 758.159C1068.2 758.445 1067.29 758.359 1066.38 757.902ZM1077.94 763.742C1077.02 763.277 1076.41 762.592 1076.09 761.687C1075.78 760.783 1075.86 759.86 1076.34 758.918L1078.3 755.021C1078.76 754.116 1079.47 753.521 1080.43 753.235C1081.38 752.949 1082.32 753.038 1083.23 753.5C1084.12 753.95 1084.72 754.635 1085.01 755.554C1085.31 756.473 1085.23 757.385 1084.77 758.29L1082.8 762.187C1082.33 763.129 1081.63 763.739 1080.71 764.019C1079.78 764.299 1078.86 764.207 1077.94 763.742ZM1023.87 752.761C1021.85 751.736 1020.48 750.149 1019.77 747.999C1019.07 745.851 1019.22 743.762 1020.25 741.733L1040.02 702.607C1041.06 700.557 1042.65 699.171 1044.81 698.449C1046.96 697.728 1049.06 697.88 1051.09 698.905L1099.57 723.4C1101.62 724.436 1103 726.04 1103.71 728.212C1104.43 730.384 1104.26 732.495 1103.23 734.546L1098.11 744.678C1097.59 745.704 1096.78 746.384 1095.68 746.717C1094.58 747.051 1093.52 746.958 1092.5 746.44C1091.47 745.922 1090.79 745.132 1090.44 744.069C1090.1 743.007 1090.19 741.963 1090.7 740.937L1095.82 730.804L1047.35 706.309L1027.58 745.435L1031.4 747.365C1032.42 747.883 1033.11 748.677 1033.46 749.745C1033.81 750.813 1033.72 751.862 1033.2 752.893C1032.68 753.923 1031.89 754.609 1030.83 754.953C1029.76 755.297 1028.72 755.209 1027.69 754.691L1023.87 752.761Z" fill="#1A1313"/>
<circle cx="882.18" cy="700.133" r="10" fill="#ED4440"/>
<path d="M753 209.768C998.422 128.71 1233.01 170.816 1276.97 303.815C1320.93 436.813 1157.61 610.34 912.187 691.398" stroke="url(#paint11_linear_1_30677)" stroke-width="15" stroke-linecap="round"/>
<path d="M590.67 251.552C595.298 295.213 563.656 334.357 519.994 338.983C476.332 343.609 437.186 311.965 432.557 268.303C427.929 224.642 459.572 185.497 503.233 180.871C546.895 176.246 586.042 207.89 590.67 251.552Z" fill="url(#paint12_linear_1_30677)" stroke="url(#paint13_linear_1_30677)"/>
<path d="M493.124 231.481C495.804 229.717 497.456 227.28 498.081 224.169C498.705 221.057 498.147 218.179 496.406 215.535C494.665 212.89 492.243 211.225 489.142 210.539C486.041 209.853 483.15 210.392 480.47 212.156C477.79 213.92 476.142 216.364 475.526 219.487C474.909 222.61 475.477 225.502 477.229 228.165C478.961 230.795 481.373 232.446 484.465 233.118C487.558 233.791 490.444 233.245 493.124 231.481ZM553.973 294.029L517.357 238.41C521.351 235.364 525.158 232.322 528.777 229.285C532.396 226.249 535.858 223.097 539.162 219.831C540.332 218.625 540.883 217.225 540.816 215.633C540.75 214.04 540.119 212.71 538.925 211.641C537.731 210.573 536.322 210.109 534.7 210.25C533.078 210.39 531.699 211.053 530.563 212.237C525.58 217.262 520.378 221.886 514.958 226.109C509.537 230.332 503.796 234.439 497.733 238.43C491.67 242.421 485.609 246.083 479.549 249.418C473.489 252.752 467.128 255.74 460.466 258.38C458.946 259.053 457.826 260.072 457.108 261.436C456.388 262.8 456.28 264.226 456.784 265.712C457.332 267.207 458.311 268.28 459.723 268.933C461.134 269.585 462.625 269.613 464.195 269.016C468.502 267.272 472.778 265.357 477.023 263.272C481.269 261.186 485.542 258.936 489.843 256.521L526.459 312.14C527.333 313.466 528.526 314.274 530.039 314.563C531.553 314.853 532.991 314.549 534.356 313.651C535.687 312.774 536.502 311.595 536.799 310.113C537.096 308.633 536.808 307.229 535.935 305.902L518.874 279.987L527.55 274.276L544.611 300.191C545.485 301.517 546.672 302.329 548.174 302.625C549.677 302.922 551.102 302.627 552.45 301.74C553.797 300.853 554.606 299.678 554.877 298.213C555.147 296.75 554.846 295.355 553.973 294.029Z" fill="#1A1313"/>
<defs>
<linearGradient id="paint0_linear_1_30677" x1="55.4209" y1="2.94788" x2="24.1735" y2="75.4661" gradientUnits="userSpaceOnUse">
<stop stop-color="#B163FF"/>
<stop offset="0.485" stop-color="#C48AFF"/>
<stop offset="1" stop-color="#E5CBFF"/>
</linearGradient>
<linearGradient id="paint1_linear_1_30677" x1="29.624" y1="0" x2="29.624" y2="59.2483" gradientUnits="userSpaceOnUse">
<stop stop-color="#F0425C"/>
<stop offset="1" stop-color="#FCAFB0"/>
</linearGradient>
<linearGradient id="paint2_linear_1_30677" x1="1094.57" y1="427.551" x2="1052.28" y2="539.157" gradientUnits="userSpaceOnUse">
<stop stop-color="#B77BF2" stop-opacity="0"/>
<stop offset="1" stop-color="#B77BF2"/>
</linearGradient>
<linearGradient id="paint3_linear_1_30677" x1="904" y1="273.001" x2="1097.98" y2="355.042" gradientUnits="userSpaceOnUse">
<stop offset="0.065" stop-color="#ED4440" stop-opacity="0"/>
<stop offset="0.931372" stop-color="#EE4D49"/>
</linearGradient>
<linearGradient id="paint4_linear_1_30677" x1="661.823" y1="506.417" x2="651.911" y2="327.505" gradientUnits="userSpaceOnUse">
<stop offset="0.095" stop-color="#512180" stop-opacity="0"/>
<stop offset="1" stop-color="#B77BF2"/>
</linearGradient>
<linearGradient id="paint5_linear_1_30677" x1="741" y1="269.999" x2="703.475" y2="502.724" gradientUnits="userSpaceOnUse">
<stop stop-color="#ED4440"/>
<stop offset="0.795" stop-color="#ED4440" stop-opacity="0"/>
</linearGradient>
<linearGradient id="paint6_linear_1_30677" x1="667.953" y1="629.432" x2="628.627" y2="507.39" gradientUnits="userSpaceOnUse">
<stop stop-color="#512180"/>
<stop offset="1" stop-color="#B77BF2"/>
</linearGradient>
<linearGradient id="paint7_linear_1_30677" x1="1073.72" y1="526.089" x2="1081.69" y2="322.682" gradientUnits="userSpaceOnUse">
<stop stop-color="#B77BF2"/>
<stop offset="1" stop-color="#B77BF2" stop-opacity="0"/>
</linearGradient>
<linearGradient id="paint8_linear_1_30677" x1="925.926" y1="550.673" x2="734.524" y2="388.147" gradientUnits="userSpaceOnUse">
<stop stop-color="#ED4440" stop-opacity="0"/>
<stop offset="1" stop-color="#ED4440"/>
</linearGradient>
<linearGradient id="paint9_linear_1_30677" x1="26.3057" y1="0" x2="26.3057" y2="52.5944" gradientUnits="userSpaceOnUse">
<stop stop-color="#F0425C"/>
<stop offset="1" stop-color="#FCAFB0"/>
</linearGradient>
<linearGradient id="paint10_linear_1_30677" x1="1087.63" y1="683.959" x2="1036.59" y2="802.404" gradientUnits="userSpaceOnUse">
<stop stop-color="#B163FF"/>
<stop offset="0.485" stop-color="#C48AFF"/>
<stop offset="1" stop-color="#E5CBFF"/>
</linearGradient>
<linearGradient id="paint11_linear_1_30677" x1="1240.47" y1="315.871" x2="870.177" y2="60.9047" gradientUnits="userSpaceOnUse">
<stop stop-color="#ED4440"/>
<stop offset="0.385" stop-color="#FF9C9C"/>
<stop offset="0.71" stop-color="#AF8E8E"/>
<stop offset="1" stop-color="#1A1313" stop-opacity="0.7"/>
</linearGradient>
<linearGradient id="paint12_linear_1_30677" x1="503.181" y1="180.374" x2="520.038" y2="339.482" gradientUnits="userSpaceOnUse">
<stop stop-color="#F0425C"/>
<stop offset="1" stop-color="#FCAFB0"/>
</linearGradient>
<linearGradient id="paint13_linear_1_30677" x1="503.181" y1="180.374" x2="520.038" y2="339.482" gradientUnits="userSpaceOnUse">
<stop stop-color="#F0425C"/>
<stop offset="1" stop-color="#FCAFB0"/>
</linearGradient>
</defs>
</svg>
