<svg width="546" height="286" viewBox="0 0 546 286" fill="none" xmlns="http://www.w3.org/2000/svg">
<g clip-path="url(#clip0_2034_1685)">
<path d="M143.25 232.262C192.127 232.262 231.75 192.639 231.75 143.762C231.75 94.8845 192.127 55.2617 143.25 55.2617C94.3728 55.2617 54.75 94.8845 54.75 143.762C54.75 192.639 94.3728 232.262 143.25 232.262Z" fill="#ED4440"/>
<path d="M402.75 232.262C451.627 232.262 491.25 192.639 491.25 143.762C491.25 94.8845 451.627 55.2617 402.75 55.2617C353.873 55.2617 314.25 94.8845 314.25 143.762C314.25 192.639 353.873 232.262 402.75 232.262Z" fill="#7A31C1"/>
<path d="M12.3916 143.012C12.3916 71.1472 70.7303 12.8867 142.691 12.8867C214.652 12.8867 272.991 71.1472 272.991 143.012" stroke="url(#paint0_linear_2034_1685)" stroke-width="21" stroke-linecap="round"/>
<path d="M273.009 143.012C273.009 71.1472 331.348 12.8867 403.309 12.8867C475.269 12.8867 533.608 71.1472 533.608 143.012" stroke="url(#paint1_linear_2034_1685)" stroke-width="21" stroke-linecap="round"/>
<path d="M273.009 143.012C273.009 214.876 331.348 273.137 403.309 273.137C475.269 273.137 533.608 214.876 533.608 143.012" stroke="url(#paint2_linear_2034_1685)" stroke-width="21" stroke-linecap="round"/>
<path d="M22.8906 143.012V132.512H1.89062V143.012H22.8906ZM283.49 143.012C283.49 137.213 278.789 132.512 272.99 132.512C267.191 132.512 262.49 137.213 262.49 143.012H283.49ZM1.89062 143.012C1.89062 220.688 64.9437 283.637 142.69 283.637V262.637C76.5153 262.637 22.8906 209.063 22.8906 143.012H1.89062ZM142.69 283.637C220.437 283.637 283.49 220.688 283.49 143.012H262.49C262.49 209.063 208.865 262.637 142.69 262.637V283.637Z" fill="url(#paint3_linear_2034_1685)"/>
<path d="M91.5838 118.496L92.9698 118.937C91.7938 121.289 89.9248 123.578 88.0768 125.09C87.8878 124.796 87.4048 124.124 87.0898 123.851C88.8538 122.57 90.5548 120.575 91.5838 118.496ZM90.9328 121.037H105.402V122.465H90.4078L90.9328 121.037ZM88.1398 126.014H105.612V127.442H88.1398V126.014ZM87.4258 131.033H106.053V132.461H87.4258V131.033ZM94.2718 123.683H95.6368V131.789H94.2718V123.683ZM90.6598 123.683H92.0878V131.852H90.6598V123.683ZM98.0728 123.683H99.4378V131.852H98.0728V123.683ZM101.769 123.683H103.239V131.852H101.769V123.683ZM93.4528 133.91L94.9018 133.763C95.1748 135.002 95.3848 136.619 95.4058 137.564L93.8728 137.795C93.8518 136.808 93.7048 135.17 93.4528 133.91ZM97.7788 133.868L99.2488 133.616C99.8158 134.813 100.383 136.43 100.593 137.438L99.0388 137.753C98.8498 136.766 98.3248 135.128 97.7788 133.868ZM102.105 133.763L103.554 133.238C104.373 134.477 105.339 136.22 105.801 137.249L104.247 137.921C103.848 136.85 102.903 135.086 102.105 133.763ZM89.9038 133.322L91.3948 133.7C90.8488 135.086 90.0088 136.829 89.2528 137.963L87.7408 137.375C88.4968 136.346 89.3788 134.687 89.9038 133.322ZM116.364 133.532H129.027V134.876H116.364V133.532ZM117.225 120.323H128.103V121.604H117.225V120.323ZM116.322 123.599H128.901V124.901H116.322V123.599ZM121.929 131.474H123.483V137.921H121.929V131.474ZM119.325 129.542V130.949H125.814V129.542H119.325ZM119.325 127.169V128.534H125.814V127.169H119.325ZM117.834 126.077H127.326V132.041H117.834V126.077ZM119.136 121.94L120.438 121.604C120.732 122.15 121.047 122.906 121.194 123.368L119.808 123.809C119.682 123.305 119.409 122.528 119.136 121.94ZM124.638 121.667L126.15 122.024C125.772 122.843 125.331 123.641 124.995 124.229L123.693 123.893C124.008 123.242 124.428 122.297 124.638 121.667ZM121.278 118.937L122.685 118.559C122.979 119.231 123.336 120.092 123.483 120.659L122.034 121.1C121.908 120.533 121.572 119.609 121.278 118.937ZM110.4 119.483H115.398V120.911H111.807V137.9H110.4V119.483ZM115.104 119.483H115.377L115.608 119.42L116.637 120.029C115.965 121.751 115.146 123.83 114.39 125.489C116.028 127.232 116.406 128.744 116.427 130.067C116.427 131.201 116.175 132.083 115.545 132.545C115.251 132.755 114.873 132.86 114.432 132.923C113.97 132.965 113.424 132.965 112.92 132.944C112.92 132.566 112.752 131.957 112.521 131.558C113.025 131.6 113.487 131.621 113.844 131.579C114.096 131.579 114.348 131.516 114.537 131.39C114.873 131.159 114.999 130.571 114.999 129.92C114.999 128.765 114.6 127.337 112.941 125.657C113.781 123.767 114.621 121.331 115.104 119.903V119.483ZM139.989 125.342L141.207 125.594C140.85 127.358 140.262 129.164 139.569 130.361C139.317 130.193 138.771 129.92 138.435 129.794C139.212 128.618 139.674 126.98 139.989 125.342ZM140.199 127.148H144.294V128.408H139.821L140.199 127.148ZM138.771 130.907H144.441V132.209H138.771V130.907ZM144.693 119.378H150.447V120.617H144.693V119.378ZM144.504 125.741H150.909V127.064H144.504V125.741ZM141.018 127.736H142.257V130.529C142.257 132.713 141.9 135.821 139.002 138.005C138.834 137.711 138.435 137.333 138.141 137.123C140.808 135.233 141.018 132.377 141.018 130.529V127.736ZM141.228 133.385L142.089 132.713C142.845 133.406 143.706 134.393 144.084 135.023L143.223 135.821C142.803 135.128 141.963 134.099 141.228 133.385ZM150.111 119.378H150.447L150.699 119.294L151.623 119.966C150.678 121.331 149.271 122.843 148.074 123.809C147.885 123.557 147.507 123.179 147.276 123.011C148.305 122.15 149.502 120.701 150.111 119.651V119.378ZM145.218 122.612L146.016 121.772C147.423 122.507 149.229 123.662 150.132 124.46L149.271 125.447C148.41 124.628 146.625 123.431 145.218 122.612ZM150.489 125.741H150.678L150.888 125.678L151.77 125.951C151.518 127.064 151.224 128.345 150.93 129.185L149.859 128.807C150.09 128.051 150.321 126.917 150.489 125.93V125.741ZM147.507 126.329H148.746V137.102L147.507 136.283V126.329ZM148.137 130.592H151.539V131.873H148.137V130.592ZM146.037 132.251C146.793 135.695 148.389 136.346 150.132 136.346C150.426 136.346 151.539 136.346 151.959 136.325C151.77 136.661 151.602 137.312 151.539 137.669H150.027C147.759 137.669 145.995 136.787 145.029 132.629L146.037 132.251ZM145.176 129.122H146.331C146.226 132.86 145.848 136.115 144.084 137.984C143.895 137.711 143.517 137.312 143.223 137.123C144.756 135.485 145.092 132.482 145.176 129.122ZM132.513 119.798H138.918V121.205H132.513V119.798ZM134.529 126.119H138.309V135.065H134.529V133.679H137.07V127.505H134.529V126.119ZM134.823 120.491L136.23 120.701C135.684 125.027 134.739 129.143 132.996 131.873C132.849 131.537 132.408 130.802 132.135 130.445C133.626 128.072 134.382 124.355 134.823 120.491ZM133.878 126.119H135.117V136.808H133.878V126.119ZM139.317 118.664H140.619V123.116C140.619 123.725 140.682 123.893 141.06 123.893C141.375 123.893 142.761 123.893 143.097 123.893C143.412 123.893 143.895 123.872 144.189 123.809C144.231 124.145 144.273 124.67 144.336 124.985C144.063 125.048 143.58 125.09 143.118 125.09C142.761 125.09 141.291 125.09 140.997 125.09C139.632 125.09 139.317 124.565 139.317 123.095V118.664ZM139.716 120.638H143.958V121.835H139.716V120.638ZM167.982 126.896H169.62V137.984H167.982V126.896ZM160.107 126.917H161.745V129.647C161.745 132.44 161.262 135.695 157.041 137.984C156.768 137.606 156.159 137.081 155.76 136.829C159.708 134.771 160.107 131.999 160.107 129.605V126.917ZM164.748 118.496L166.008 119.357C163.908 122.843 159.855 126.161 155.865 127.757C155.655 127.295 155.256 126.665 154.899 126.266C158.868 124.943 162.837 121.772 164.748 118.496ZM165.504 119.63C167.373 122.339 171.153 124.964 174.807 126.035C174.45 126.371 173.946 127.043 173.673 127.484C169.956 126.224 166.239 123.347 164.139 120.197L165.504 119.63ZM184.425 127.967H190.179V129.269H184.425V127.967ZM184.425 131.621H190.242V132.923H184.425V131.621ZM180.099 135.38H194.925V136.85H180.099V135.38ZM179.133 124.166H195.786V137.963H194.19V125.636H180.666V137.963H179.133V124.166ZM183.69 125.09H185.118V136.052H183.69V125.09ZM189.57 125.09H191.019V135.989H189.57V125.09ZM186.42 120.722L188.247 121.142C187.806 122.549 187.365 124.166 186.945 125.216L185.517 124.817C185.853 123.683 186.273 121.94 186.42 120.722ZM178.188 120.029H196.794V121.541H178.188V120.029ZM88.1188 158.735H94.3348V159.995H88.1188V158.735ZM88.1188 161.486H94.3558V162.746H88.1188V161.486ZM87.2368 155.942H95.2378V157.265H87.2368V155.942ZM88.7908 164.3H94.3558V170.432H88.7908V169.109H92.9488V165.623H88.7908V164.3ZM88.0978 164.3H89.4838V171.419H88.0978V164.3ZM89.5258 152.918L90.7438 152.288C91.3528 153.149 92.0458 154.262 92.3818 154.997L91.0798 155.753C90.7648 154.976 90.0928 153.779 89.5258 152.918ZM97.3378 153.149H102.777V154.619H97.3378V153.149ZM95.0068 161.654H104.268V163.145H95.0068V161.654ZM103.701 161.654H104.016L104.289 161.591L105.276 162.032C103.659 167.387 99.6058 170.348 95.0488 171.713C94.8808 171.293 94.5238 170.642 94.2298 170.306C98.4718 169.235 102.336 166.421 103.701 161.927V161.654ZM97.2328 162.998C98.7868 166.589 102.084 169.256 106.515 170.243C106.179 170.579 105.738 171.23 105.528 171.671C100.971 170.474 97.6738 167.576 95.8888 163.46L97.2328 162.998ZM97.0228 153.149H98.4928V155.501C98.4928 157.391 97.9468 159.638 95.4268 161.129C95.2378 160.814 94.6918 160.205 94.4188 159.974C96.6868 158.672 97.0228 156.95 97.0228 155.459V153.149ZM102 153.149H103.47V158.021C103.47 158.609 103.512 158.819 103.785 158.819C104.016 158.819 104.835 158.819 105.066 158.819C105.318 158.819 105.717 158.777 105.969 158.714C105.99 159.113 106.032 159.701 106.095 160.058C105.864 160.163 105.444 160.184 105.066 160.184C104.793 160.184 103.932 160.184 103.68 160.184C102.294 160.184 102 159.596 102 158V153.149ZM111.198 158.735H118.065V159.995H111.198V158.735ZM111.198 161.486H118.023V162.746H111.198V161.486ZM110.253 155.942H118.947V157.265H110.253V155.942ZM112.017 164.3H118.044V170.432H112.017V169.109H116.658V165.623H112.017V164.3ZM111.345 164.3H112.71V171.419H111.345V164.3ZM112.752 152.918L113.991 152.288C114.579 153.149 115.251 154.262 115.587 154.997L114.327 155.753C114.012 154.976 113.319 153.779 112.752 152.918ZM118.926 159.659H128.985V161.213H118.926V159.659ZM123.042 152.771H124.659V171.692H123.042V152.771ZM145.449 153.443H149.334V154.829H145.449V153.443ZM140.577 154.472H144.672V155.816H140.577V154.472ZM145.638 157.475H149.271V158.819H145.638V157.475ZM145.512 161.423H149.082V162.767H145.512V161.423ZM135.138 157.412H138.708V158.756H135.138V157.412ZM135.243 161.339H138.771V162.683H135.243V161.339ZM148.473 153.443H149.943C149.901 157.412 149.775 162.83 149.565 165.875H148.095C148.305 162.788 148.494 157.328 148.473 153.443ZM138.225 152.498L138.981 153.779C137.7 154.325 136.062 154.85 134.718 155.249C134.655 154.934 134.466 154.451 134.298 154.115C135.621 153.653 137.196 153.023 138.225 152.498ZM139.821 152.519H141.186V158.063H143.958V159.344H139.821V152.519ZM132.576 165.287H151.644V166.757H132.576V165.287ZM144.126 168.101L144.987 167.009C147.234 168.059 149.67 169.403 151.14 170.411L150.09 171.608C148.662 170.579 146.331 169.172 144.126 168.101ZM138.75 167.093L140.094 168.038C138.372 169.361 135.831 170.768 133.773 171.671C133.563 171.335 133.164 170.81 132.849 170.474C134.865 169.655 137.406 168.227 138.75 167.093ZM134.298 154.115L135.768 154.535L136.146 165.791H134.718L134.298 154.115ZM140.493 160.268L141.732 160.478C141.501 161.948 141.06 163.418 140.409 164.405C140.199 164.216 139.632 163.88 139.338 163.733C139.989 162.83 140.304 161.549 140.493 160.268ZM143.181 158.084H144.525V163.67C144.525 164.321 144.399 164.615 143.937 164.804C143.475 164.993 142.74 164.993 141.711 164.993C141.648 164.657 141.48 164.237 141.312 163.922C142.068 163.943 142.698 163.943 142.908 163.922C143.118 163.922 143.181 163.859 143.181 163.67V158.084ZM165.567 153.38H174.219V154.745H165.567V153.38ZM167.499 161.066V163.04H172.119V161.066H167.499ZM167.499 164.237V166.211H172.119V164.237H167.499ZM167.499 157.937V159.869H172.119V157.937H167.499ZM166.176 156.698H173.484V167.471H166.176V156.698ZM169.053 154.052L170.712 154.241C170.418 155.438 170.145 156.74 169.914 157.622L168.612 157.37C168.801 156.425 168.99 154.997 169.053 154.052ZM168.045 168.08L169.368 168.836C168.486 169.886 167.1 171.041 165.903 171.713C165.672 171.44 165.21 170.999 164.874 170.747C166.071 170.096 167.373 168.983 168.045 168.08ZM170.607 168.815L171.783 168.101C172.749 168.878 173.904 169.991 174.492 170.747L173.295 171.566C172.749 170.789 171.573 169.634 170.607 168.815ZM160.968 161.045L162.039 160.709C162.438 161.381 162.858 162.263 163.047 162.851L161.913 163.25C161.724 162.641 161.346 161.717 160.968 161.045ZM158.889 164.804H164.958V165.791H158.889V164.804ZM158.889 166.988H165.021V167.996H158.889V166.988ZM161.64 163.061H162.774V169.802H161.64V163.061ZM159.498 162.557H165.189V163.628H159.498V171.461H158.28V163.628L159.225 162.557H159.498ZM159.183 160.646L160.338 160.961C159.729 162.872 158.721 164.846 157.629 166.127C157.482 165.896 157.083 165.371 156.81 165.119C157.839 164.006 158.679 162.326 159.183 160.646ZM156.726 156.11H164.916V160.478H156.726V159.218H163.509V157.37H156.726V156.11ZM163.53 152.771L164.727 153.863C162.543 154.514 159.267 154.976 156.537 155.186C156.495 154.85 156.285 154.346 156.117 154.031C158.742 153.779 161.85 153.338 163.53 152.771ZM156.117 154.031H157.461V161.087C157.461 164.153 157.293 168.605 156.159 171.587C155.907 171.377 155.298 171.062 154.962 170.936C156.033 168.059 156.117 163.985 156.117 161.087V154.031ZM158.91 169.193H165.336V170.306H158.91V169.193ZM184.131 162.578H191.313V168.731H184.131V167.408H189.843V163.901H184.131V162.578ZM183.438 162.578H184.908V169.991H183.438V162.578ZM179.637 156.32H185.475V157.496H179.637V156.32ZM189.318 156.32H195.261V157.496H189.318V156.32ZM194.568 153.275H196.143V169.592C196.143 170.642 195.891 171.146 195.219 171.419C194.505 171.671 193.287 171.692 191.439 171.692C191.376 171.251 191.103 170.516 190.872 170.075C192.258 170.138 193.644 170.117 194.043 170.096C194.442 170.096 194.568 169.97 194.568 169.571V153.275ZM179.763 153.275H186.483V160.688H179.763V159.407H184.992V154.556H179.763V153.275ZM195.387 153.275V154.535H189.885V159.428H195.387V160.688H188.373V153.275H195.387ZM178.881 153.275H180.435V171.713H178.881V153.275Z" fill="white"/>
<path d="M368.952 121.053H379.389V122.439H368.952V121.053ZM370.17 127.857H378.213V129.201H370.17V127.857ZM370.17 131.406H378.213V132.771H370.17V131.406ZM373.362 118.134H374.769V137.307H373.362V118.134ZM369.33 124.371H377.919V125.757H370.758V137.433H369.33V124.371ZM377.415 124.371H378.885V135.753C378.885 136.488 378.759 136.908 378.297 137.16C377.814 137.412 377.1 137.433 376.029 137.433C375.987 137.034 375.819 136.404 375.63 136.005C376.323 136.026 376.953 136.026 377.163 136.005C377.373 136.005 377.415 135.942 377.415 135.711V124.371ZM375.588 118.869L376.47 118.134C377.394 118.701 378.528 119.562 379.074 120.192L378.171 121.032C377.625 120.402 376.533 119.478 375.588 118.869ZM360.321 120.402H368.469V121.809H360.321V120.402ZM360.048 132.372H368.763V133.779H360.048V132.372ZM363.765 118.134H365.214V123.867H363.765V118.134ZM363.912 123.951H365.067V130.062H365.214V137.475H363.765V130.062H363.912V123.951ZM362.001 127.563V129.495H367.02V127.563H362.001ZM362.001 124.539V126.429H367.02V124.539H362.001ZM360.783 123.363H368.238V130.671H360.783V123.363ZM391.716 122.88H400.599V124.371H391.716V122.88ZM399.927 122.88H401.439C401.439 122.88 401.418 123.468 401.418 123.678C401.208 132.561 401.019 135.564 400.326 136.467C399.906 137.034 399.465 137.202 398.793 137.265C398.142 137.328 397.008 137.307 395.895 137.265C395.853 136.803 395.685 136.152 395.412 135.753C396.63 135.837 397.722 135.837 398.163 135.837C398.52 135.858 398.751 135.795 398.94 135.522C399.507 134.871 399.738 131.805 399.927 123.216V122.88ZM395.202 118.134H396.735C396.714 126.177 396.693 133.653 390.855 137.475C390.624 137.097 390.099 136.572 389.7 136.32C395.307 132.834 395.181 125.778 395.202 118.134ZM384.156 119.142H391.002V132.813H389.532V120.591H385.563V134.157H384.156V119.142ZM382.644 133.779C384.975 133.317 388.671 132.54 392.157 131.763L392.304 133.191C388.965 133.989 385.437 134.808 382.917 135.375L382.644 133.779ZM384.891 123.657H390.225V125.085H384.891V123.657ZM384.891 128.151H390.225V129.558H384.891V128.151ZM412.527 121.431H424.098V122.901H412.527V121.431ZM412.968 126.051H422.229V127.5H412.968V126.051ZM417.483 118.113H419.037V126.87H417.483V118.113ZM415.005 127.122C416.58 131.532 419.961 134.808 424.875 136.11C424.518 136.425 424.077 137.055 423.846 137.454C418.806 135.963 415.404 132.477 413.577 127.542L415.005 127.122ZM422.103 126.051H422.397L422.691 125.988L423.678 126.429C421.893 132.456 417.315 135.879 412.17 137.433C412.023 137.013 411.624 136.341 411.33 136.005C416.139 134.766 420.57 131.511 422.103 126.324V126.051ZM405.366 129.243C407.13 128.802 409.734 128.088 412.233 127.374L412.422 128.802C410.133 129.495 407.697 130.209 405.828 130.755L405.366 129.243ZM405.639 122.355H412.233V123.846H405.639V122.355ZM408.348 118.134H409.902V135.543C409.902 136.425 409.692 136.866 409.125 137.097C408.579 137.349 407.697 137.391 406.248 137.391C406.206 136.992 405.975 136.362 405.765 135.942C406.752 135.963 407.676 135.963 407.949 135.942C408.222 135.942 408.348 135.837 408.348 135.543V118.134ZM433.632 123.237H441.654V124.707H433.632V123.237ZM436.761 118.302H438.147V137.391H436.761V118.302ZM442.116 119.793H447.135V121.221H442.116V119.793ZM441.612 124.707H447.429V126.156H441.612V124.707ZM438.903 119.856L439.911 119.289C440.667 120.129 441.465 121.263 441.822 122.04L440.772 122.67C440.436 121.914 439.638 120.717 438.903 119.856ZM444.048 125.442H445.539V135.354C445.539 136.236 445.371 136.677 444.783 136.95C444.195 137.202 443.229 137.223 441.759 137.223C441.696 136.782 441.507 136.131 441.297 135.69C442.368 135.711 443.355 135.711 443.649 135.711C443.964 135.69 444.048 135.627 444.048 135.354V125.442ZM431.721 118.134L433.191 118.638C432.162 120.381 430.482 122.313 428.907 123.552C428.718 123.237 428.298 122.67 428.046 122.376C429.453 121.305 430.965 119.562 431.721 118.134ZM430.419 126.492L431.7 125.232L431.889 125.295V137.454H430.419V126.492ZM432.267 122.355L433.695 122.817C432.456 125.442 430.524 128.088 428.592 129.789C428.424 129.474 427.962 128.739 427.647 128.424C429.453 126.933 431.217 124.686 432.267 122.355ZM434.43 126.072H435.627C435.585 130.167 435.354 132.897 433.716 134.556C433.548 134.262 433.17 133.821 432.876 133.611C434.22 132.183 434.388 129.789 434.43 126.072ZM439.365 126.072H440.562V132.015C440.562 132.561 440.583 132.687 440.772 132.687C440.94 132.687 441.402 132.687 441.57 132.687C441.759 132.687 442.032 132.666 442.242 132.624C442.263 132.939 442.326 133.485 442.368 133.779C442.158 133.842 441.864 133.863 441.549 133.863C441.381 133.863 440.961 133.863 440.793 133.863C439.575 133.863 439.365 133.401 439.365 131.973V126.072ZM363.345 153.354H376.932V154.866H363.345V153.354ZM363.345 158.247H376.911V159.738H363.345V158.247ZM363.24 163.266H376.953V164.757H363.24V163.266ZM362.463 153.354H364.017V160.977C364.017 164.169 363.639 168.516 361.14 171.309C360.888 170.994 360.258 170.469 359.922 170.259C362.232 167.655 362.463 163.917 362.463 160.956V153.354ZM376.302 153.354H377.856V169.041C377.856 170.07 377.604 170.553 376.911 170.826C376.197 171.078 374.979 171.099 372.984 171.078C372.921 170.658 372.669 169.965 372.438 169.545C373.929 169.608 375.357 169.587 375.756 169.587C376.155 169.566 376.302 169.44 376.302 169.041V153.354ZM369.057 153.921H370.653V170.994H369.057V153.921ZM386.466 163.014H398.583V164.484H386.466V163.014ZM386.613 157.344H399.507V165.618H397.932V158.814H386.613V157.344ZM397.596 151.926L398.877 153.123C395.517 154.131 390.435 154.908 386.067 155.391C386.004 155.013 385.815 154.425 385.647 154.089C389.889 153.606 394.845 152.808 397.596 151.926ZM385.647 154.089H387.222V160.494C387.222 163.77 386.781 168.327 383.883 171.267C383.631 170.952 383.022 170.385 382.665 170.175C385.374 167.445 385.647 163.518 385.647 160.494V154.089ZM414.207 153.039H424.35V154.509H414.207V153.039ZM413.619 160.557H424.77V162.069H413.619V160.557ZM420.885 153.627H422.376V171.204H420.885V153.627ZM415.95 153.69H417.441V161.04C417.441 164.526 417.084 168.537 414.459 171.288C414.186 171.015 413.619 170.574 413.241 170.385C415.656 167.823 415.95 164.106 415.95 161.04V153.69ZM405.66 153.018H413.073V154.467H405.66V153.018ZM407.781 159.465H412.695V168.558H407.781V167.13H411.309V160.893H407.781V159.465ZM408.411 153.69L409.881 154.005C409.125 157.974 407.928 161.796 405.996 164.316C405.891 163.938 405.534 163.035 405.261 162.615C406.878 160.473 407.865 157.197 408.411 153.69ZM407.088 159.465H408.432V170.238H407.088V159.465ZM429.642 162.93H441.801V164.4H429.642V162.93ZM440.835 162.93H442.473V168.537C442.473 169.125 442.578 169.209 443.208 169.209C443.502 169.209 444.888 169.209 445.245 169.209C445.875 169.209 445.98 168.831 446.043 166.08C446.4 166.353 447.114 166.626 447.555 166.752C447.387 169.965 446.946 170.763 445.413 170.763C445.035 170.763 443.334 170.763 442.977 170.763C441.318 170.763 440.835 170.28 440.835 168.537V162.93ZM428.907 153.942H446.841V157.554H445.203V155.37H430.461V157.722H428.907V153.942ZM435.69 160.368H437.328V162.888C437.328 165.765 436.362 169.293 429.306 171.267C429.054 170.868 428.571 170.301 428.193 169.944C434.85 168.117 435.69 165.114 435.69 162.867V160.368ZM434.598 155.034H436.236C435.837 158.436 434.64 160.2 429.957 161.166C429.81 160.767 429.432 160.179 429.096 159.885C433.338 159.15 434.283 157.764 434.598 155.034ZM436.488 152.115L438.063 151.842C438.462 152.661 438.903 153.795 439.113 154.467L437.433 154.845C437.244 154.152 436.845 152.997 436.488 152.115ZM439.302 154.992H440.877V158.877C440.877 159.423 440.961 159.633 441.486 159.633C441.948 159.633 444.216 159.633 444.699 159.633C445.182 159.633 445.938 159.591 446.295 159.507C446.337 159.906 446.379 160.473 446.442 160.851C446.106 160.935 445.434 160.956 444.762 160.956C444.237 160.956 441.78 160.956 441.402 160.956C439.701 160.956 439.302 160.389 439.302 158.856V154.992Z" fill="white"/>
<path d="M12.3926 143.012C12.3926 71.1472 70.7314 12.8867 142.692 12.8867C214.653 12.8867 272.992 71.1472 272.992 143.012" stroke="url(#paint4_linear_2034_1685)" stroke-width="21" stroke-linecap="round"/>
<path d="M531 122.762C538.042 122.762 543.75 117.053 543.75 110.012C543.75 102.97 538.042 97.2617 531 97.2617C523.958 97.2617 518.25 102.97 518.25 110.012C518.25 117.053 523.958 122.762 531 122.762Z" fill="#ED4440"/>
<path d="M15.75 188.762C22.7916 188.762 28.5 183.053 28.5 176.012C28.5 168.97 22.7916 163.262 15.75 163.262C8.70837 163.262 3 168.97 3 176.012C3 183.053 8.70837 188.762 15.75 188.762Z" fill="#B77BF2"/>
</g>
<defs>
<linearGradient id="paint0_linear_2034_1685" x1="-0.000200609" y1="77.9447" x2="285.383" y2="77.9447" gradientUnits="userSpaceOnUse">
<stop stop-color="#E8373A"/>
<stop offset="1" stop-color="#E8373A" stop-opacity="0"/>
</linearGradient>
<linearGradient id="paint1_linear_2034_1685" x1="517.5" y1="146.012" x2="294" y2="51.1367" gradientUnits="userSpaceOnUse">
<stop offset="0.0731206" stop-color="#1A1313"/>
<stop offset="0.290016" stop-color="#865BAA"/>
<stop offset="0.418061" stop-color="#B77BF2"/>
<stop offset="1" stop-color="#742ABD"/>
</linearGradient>
<linearGradient id="paint2_linear_2034_1685" x1="545.991" y1="208.07" x2="260.608" y2="208.07" gradientUnits="userSpaceOnUse">
<stop stop-color="#B77BF2"/>
<stop offset="1" stop-color="#B77BF2" stop-opacity="0"/>
</linearGradient>
<linearGradient id="paint3_linear_2034_1685" x1="-0.00116222" y1="208.07" x2="285.382" y2="208.07" gradientUnits="userSpaceOnUse">
<stop offset="0.075" stop-color="#1A1313" stop-opacity="0"/>
<stop offset="0.24" stop-color="#C28686" stop-opacity="0.733333"/>
<stop offset="0.41" stop-color="#FFB0B0"/>
<stop offset="0.901423" stop-color="#ED4440"/>
</linearGradient>
<linearGradient id="paint4_linear_2034_1685" x1="0.00081468" y1="77.9447" x2="285.384" y2="77.9447" gradientUnits="userSpaceOnUse">
<stop stop-color="#E8373A"/>
<stop offset="0.945" stop-color="#E8373A" stop-opacity="0"/>
</linearGradient>
<clipPath id="clip0_2034_1685">
<rect width="546" height="285" fill="white" transform="translate(0 0.511719)"/>
</clipPath>
</defs>
</svg>
