<svg width="384" height="404" viewBox="0 0 384 404" fill="none" xmlns="http://www.w3.org/2000/svg">
<path d="M293.913 250.571L380.465 168.18L242.17 155.593L155.618 237.984" stroke="#211815" stroke-width="5" stroke-linecap="round" stroke-linejoin="round"/>
<path d="M73.0753 257.581L155.374 239.316" stroke="#211815" stroke-width="7" stroke-linecap="round" stroke-linejoin="round"/>
<path d="M160.44 239.316L291.476 251.284" stroke="#211815" stroke-width="7" stroke-linecap="round" stroke-linejoin="round"/>
<path d="M210.24 289.958V381.309" stroke="#211815" stroke-width="5" stroke-linecap="round" stroke-linejoin="round"/>
<path d="M91.2482 80.8518C74.946 81.9856 45.561 74.4821 32.4703 65.8369C28.88 81.0801 12.6488 106.646 0 116.976C13.7851 124.511 33.141 147.816 38.7039 163.595C50.5163 152.257 78.7098 141.092 95.0989 141.273C88.3128 125.975 86.3875 95.7722 91.2482 80.8597V80.8518Z" fill="#FCAFB0"/>
<path d="M49.4367 99.8829L41.0144 105.05C40.2861 105.499 39.5025 105.625 38.6713 105.428C37.8401 105.231 37.2069 104.767 36.7557 104.042C36.3045 103.317 36.1778 102.537 36.3757 101.718C36.5736 100.899 37.0407 100.261 37.7689 99.812L59.8855 86.2557C60.6137 85.8068 61.3974 85.6807 62.2285 85.8777C63.0597 86.0746 63.693 86.5393 64.1442 87.264C64.5954 87.9966 64.722 88.7685 64.5241 89.5877C64.3262 90.4069 63.8592 91.0449 63.1309 91.4939L54.7086 96.6612L70.6034 122.332C71.0546 123.057 71.1813 123.837 70.9834 124.664C70.7855 125.491 70.3184 126.121 69.5902 126.57C68.854 127.019 68.0783 127.145 67.255 126.948C66.4318 126.751 65.7906 126.286 65.3394 125.562L49.4446 99.8908L49.4367 99.8829ZM36.9694 121.986L32.7582 124.569C32.03 125.018 31.2463 125.144 30.4152 124.947C29.584 124.75 28.9508 124.286 28.4996 123.561C28.0484 122.828 27.9217 122.057 28.1196 121.237C28.3175 120.418 28.7845 119.78 29.5128 119.331L43.1991 110.934C43.9273 110.485 44.711 110.359 45.5422 110.556C46.3733 110.753 47.0066 111.218 47.4578 111.943C47.909 112.675 48.0356 113.447 47.8377 114.266C47.6398 115.085 47.1728 115.723 46.4446 116.172L42.2334 118.756L51.6452 133.951C52.0964 134.675 52.223 135.455 52.0252 136.282C51.8273 137.109 51.3602 137.74 50.632 138.189C49.8958 138.638 49.1201 138.764 48.2968 138.567C47.4736 138.37 46.8324 137.905 46.3812 137.18L36.9694 121.986Z" fill="white"/>
<path d="M270.614 54.2734L270.613 54.2709C268.412 49.3947 268.228 43.8408 270.134 38.8263C272.713 32.0318 269.28 24.4256 262.44 21.8471L262.439 21.8466C257.422 19.9534 253.359 16.1537 251.154 11.2705L270.614 54.2734ZM270.614 54.2734C273.613 60.9026 270.655 68.7029 263.99 71.6999L270.614 54.2734ZM233.637 4.67061L233.635 4.67174C228.749 6.8616 223.186 7.04472 218.162 5.14918C211.317 2.56835 203.678 6.01192 201.096 12.8129L201.095 12.814C199.192 17.821 195.376 21.8689 190.482 24.0635C183.817 27.0608 180.86 34.8607 183.858 41.4896L183.859 41.4921C186.06 46.3679 186.245 51.9213 184.339 56.9356C184.339 56.936 184.339 56.9363 184.339 56.9366M233.637 4.67061L181.067 55.6932L184.339 56.9366M233.637 4.67061C240.314 1.67149 248.151 4.64009 251.154 11.2701L233.637 4.67061ZM184.339 56.9366C181.76 63.7312 185.193 71.3374 192.032 73.9159L192.033 73.9163C197.051 75.8098 201.114 79.6101 203.32 84.4942C206.322 91.1233 214.159 94.0913 220.835 91.0924L220.838 91.0912C225.724 88.9012 231.287 88.7182 236.311 90.6142C243.157 93.1942 250.795 89.7507 253.377 82.9501L253.377 82.9489C255.28 77.9424 259.095 73.8948 263.99 71.7001L184.339 56.9366Z" stroke="#D63C3D" stroke-width="7"/>
<path d="M218.559 45.7316L223.348 42.4036C223.762 42.1182 224.014 41.7275 224.11 41.2167C224.206 40.7058 224.11 40.2476 223.829 39.8269C223.548 39.4062 223.156 39.1508 222.661 39.0531C222.166 38.9554 221.7 39.0531 221.279 39.3386L215.38 43.3953C215.099 43.5981 214.87 43.831 214.693 44.0939C214.516 44.3644 214.405 44.6423 214.346 44.9353C214.294 45.2283 214.301 45.5288 214.368 45.8368C214.434 46.1448 214.567 46.4453 214.759 46.7308L218.854 52.8384C219.15 53.2591 219.542 53.5145 220.044 53.5971C220.54 53.6798 220.998 53.5821 221.412 53.2891C221.826 52.9961 222.084 52.598 222.181 52.0796C222.277 51.5613 222.181 51.0955 221.9 50.6673L218.559 45.7241V45.7316ZM235.877 49.0671L230.984 52.4552C230.57 52.7407 230.319 53.1389 230.222 53.6497C230.126 54.1606 230.222 54.6263 230.503 55.047C230.784 55.4677 231.176 55.7231 231.671 55.8208C232.166 55.9185 232.625 55.8208 233.053 55.5353L239.063 51.4035C239.344 51.2007 239.573 50.9678 239.75 50.7048C239.927 50.4344 240.038 50.1564 240.097 49.8635C240.149 49.5705 240.142 49.27 240.075 48.962C240.009 48.654 239.876 48.3535 239.684 48.068L235.589 41.9604C235.47 41.7576 235.3 41.5848 235.079 41.4496C234.857 41.3143 234.635 41.2242 234.413 41.1791C234.192 41.134 233.97 41.1415 233.748 41.1941C233.526 41.2467 233.305 41.3369 233.098 41.4721C232.669 41.7801 232.403 42.1933 232.307 42.7041C232.211 43.215 232.307 43.6807 232.588 44.1014L235.892 49.0671H235.877ZM206.015 66.1428C204.759 65.9025 203.768 65.2338 203.037 64.1445C202.305 63.0552 202.061 61.8683 202.297 60.5912L208.772 25.8463C209.009 24.5617 209.667 23.54 210.746 22.7962C211.818 22.045 212.986 21.7896 214.242 22.0375L248.428 28.6184C249.692 28.8588 250.697 29.5349 251.429 30.6317C252.168 31.7285 252.412 32.923 252.175 34.2076L245.7 68.9525C245.464 70.2296 244.806 71.2363 243.727 71.98C242.648 72.7237 241.472 72.9716 240.208 72.7312L206.023 66.1504L206.015 66.1428ZM206.888 61.4776L241.073 68.0585L247.548 33.3136L213.362 26.7327L206.888 61.4776Z" fill="#D63C3D"/>
<mask id="mask0_1_30788" style="mask-type:luminance" maskUnits="userSpaceOnUse" x="36" y="94" width="283" height="177">
<path d="M57.6735 255.827L215.194 270.213L309.708 249.238L318.625 183.901L161.168 94.2666L36.7531 203.709L57.6735 255.827Z" fill="white"/>
</mask>
<g mask="url(#mask0_1_30788)">
<path d="M186.309 217.685C171.015 226.175 127.457 213.839 118.935 198.602C110.413 183.365 122.796 139.973 138.091 131.484C153.386 122.994 196.944 135.33 205.465 150.567C213.987 165.804 201.604 209.196 186.309 217.685Z" fill="white"/>
<path d="M153.048 134.604C161.451 134.604 172.117 136.827 181.581 140.555C192.302 144.78 197.896 149.455 199.55 152.418C201.86 156.549 202.422 167.726 198.205 182.513C193.987 197.301 187.602 206.507 183.456 208.809C182.261 209.471 179.357 210.582 173.352 210.582C164.941 210.582 154.275 208.36 144.819 204.631C134.098 200.406 128.504 195.732 126.842 192.768C124.532 188.638 123.97 177.461 128.188 162.673C132.405 147.886 138.79 138.679 142.936 136.378C144.131 135.715 147.027 134.604 153.04 134.604M153.048 126.722C147.446 126.722 142.549 127.581 139.099 129.496C123.804 137.986 111.421 181.37 119.943 196.615C126.542 208.415 154.14 218.473 173.36 218.473C178.962 218.473 183.859 217.614 187.309 215.698C202.604 207.209 214.987 163.824 206.465 148.58C199.866 136.78 172.268 126.722 153.048 126.722Z" fill="#D63C3D"/>
<path fill-rule="evenodd" clip-rule="evenodd" d="M142.265 176.445L140.519 182.207L140.499 182.227C140.328 182.791 140.376 183.321 140.642 183.811C140.908 184.3 141.324 184.633 141.89 184.803L147.674 186.542C148.207 186.705 148.759 186.753 149.332 186.692C149.905 186.631 150.43 186.474 150.901 186.223L173.588 174.107L176.112 178.796L180.081 176.676L176.862 170.682L185.532 166.096C185.852 165.926 186.118 165.715 186.336 165.457C186.555 165.205 186.712 164.927 186.8 164.635C186.889 164.336 186.909 164.023 186.848 163.683C186.787 163.344 186.677 162.997 186.521 162.65L183.724 157.452C183.519 157.126 183.294 156.847 183.042 156.609C182.789 156.372 182.517 156.209 182.223 156.12C181.93 156.032 181.616 156.005 181.282 156.045C180.948 156.086 180.62 156.188 180.307 156.358L171.712 160.992L168.492 154.999L164.454 157.133L167.005 161.828L144.319 173.944C143.848 174.195 143.425 174.542 143.057 174.984C142.688 175.425 142.429 175.915 142.265 176.445ZM149.093 182.628L145.096 181.426L146.303 177.444L169.175 165.233L171.964 170.417L149.093 182.628Z" fill="#D63C3D"/>
<path d="M291.139 226.47C296.377 219.526 294.97 209.663 287.994 204.442C284.642 201.935 282.433 198.208 281.845 194.076C280.62 185.475 272.626 179.488 263.994 180.716C259.848 181.302 255.636 180.221 252.292 177.723C245.324 172.502 235.426 173.904 230.187 180.856C227.672 184.196 223.931 186.398 219.785 186.984C211.153 188.204 205.145 196.171 206.378 204.772C206.966 208.904 205.881 213.101 203.374 216.433C198.135 223.377 199.542 233.24 206.519 238.46C209.87 240.967 212.08 244.695 212.668 248.827C213.892 257.428 221.887 263.415 230.518 262.186C234.665 261.601 238.877 262.681 242.22 265.18C249.189 270.4 259.087 268.998 264.325 262.046C266.841 258.706 270.582 256.504 274.728 255.919C283.36 254.698 289.368 246.732 288.135 238.13C287.547 233.999 288.631 229.801 291.139 226.47Z" fill="#D63C3D"/>
<path d="M225.736 235.965C224.595 235.76 223.685 235.186 223.012 234.219C222.339 233.259 222.101 232.201 222.298 231.062L227.77 200.041C227.975 198.893 228.558 197.982 229.518 197.302C230.486 196.621 231.536 196.383 232.676 196.58L268.758 202.943C269.907 203.148 270.817 203.731 271.498 204.706C272.179 205.674 272.417 206.732 272.212 207.88L266.74 238.901C266.535 240.041 265.952 240.951 264.984 241.623C264.016 242.296 262.958 242.534 261.809 242.329L225.727 235.965H225.736ZM226.474 231.8L262.556 238.163L268.028 207.142L231.946 200.779L226.474 231.8ZM239.732 228.987C240.306 229.085 240.839 228.971 241.323 228.643C241.808 228.315 242.103 227.847 242.21 227.257C242.316 226.658 242.193 226.125 241.857 225.65C241.512 225.174 241.053 224.887 240.478 224.78L234.342 223.698C233.743 223.591 233.21 223.706 232.734 224.042C232.258 224.37 231.971 224.838 231.864 225.436C231.757 226.035 231.872 226.568 232.209 227.044C232.537 227.519 233.004 227.806 233.603 227.913L239.74 228.995L239.732 228.987ZM252.563 220.787L251.3 218.991C250.947 218.499 250.496 218.204 249.93 218.122C249.364 218.04 248.838 218.171 248.338 218.515C247.879 218.868 247.591 219.327 247.477 219.885C247.362 220.442 247.477 220.967 247.821 221.467L250.274 224.969C250.627 225.461 251.095 225.756 251.669 225.855C252.243 225.953 252.768 225.838 253.26 225.494L261.817 219.508C262.31 219.163 262.613 218.704 262.712 218.146C262.81 217.589 262.687 217.056 262.342 216.564C261.998 216.072 261.53 215.768 260.956 215.67C260.373 215.572 259.84 215.695 259.34 216.047L252.58 220.787H252.563ZM241.217 220.574C241.791 220.672 242.324 220.557 242.808 220.229C243.292 219.901 243.588 219.434 243.694 218.843C243.801 218.245 243.678 217.712 243.342 217.236C242.997 216.761 242.538 216.474 241.963 216.367L235.827 215.285C235.228 215.178 234.695 215.293 234.219 215.629C233.743 215.965 233.456 216.424 233.349 217.023C233.242 217.622 233.357 218.155 233.694 218.63C234.022 219.106 234.489 219.393 235.088 219.499L241.225 220.582L241.217 220.574ZM242.702 212.16C243.276 212.259 243.809 212.144 244.293 211.816C244.777 211.488 245.073 211.021 245.179 210.43C245.286 209.832 245.163 209.299 244.827 208.823C244.482 208.347 244.023 208.06 243.448 207.954L237.312 206.871C236.713 206.765 236.179 206.88 235.704 207.216C235.228 207.544 234.941 208.011 234.834 208.61C234.727 209.208 234.842 209.741 235.179 210.217C235.507 210.693 235.974 210.98 236.573 211.086L242.71 212.169L242.702 212.16Z" fill="white"/>
<path d="M127.731 180.449C115.601 178.896 104.357 186.053 100.346 197.049C98.5971 196.418 96.7614 195.961 94.8387 195.717C80.7862 193.912 67.9285 203.796 66.1245 217.795C64.5657 229.879 71.7502 241.08 82.7881 245.076C82.1551 246.818 81.6962 248.647 81.4509 250.562C79.6389 264.562 89.569 277.37 103.614 279.168C115.743 280.72 126.987 273.563 130.999 262.567C132.747 263.198 134.583 263.655 136.506 263.899C150.558 265.704 163.416 255.812 165.22 241.821C166.779 229.737 159.594 218.536 148.556 214.54C149.189 212.798 149.648 210.969 149.893 209.054C151.705 195.055 141.783 182.246 127.731 180.449Z" fill="#D63C3D"/>
<path d="M112.072 255.891L108.028 256.876C106.683 257.152 105.449 256.876 104.325 256.041C103.202 255.205 102.569 254.054 102.426 252.588L99.1585 237.501L112.079 255.891H112.072ZM120.823 253.936C119.739 254.693 118.544 254.961 117.246 254.74C115.949 254.519 114.92 253.873 114.168 252.801L103.684 237.88L122.508 250.846C122.777 251.035 123.038 251.185 123.299 251.288C123.56 251.39 123.861 251.485 124.201 251.579L120.823 253.936ZM130.041 246.259C129.297 247.291 128.308 247.914 127.066 248.135C125.823 248.355 124.684 248.111 123.632 247.402L97.4019 229.288C96.3654 228.547 95.7403 227.554 95.5109 226.3C95.2893 225.047 95.5425 223.896 96.2784 222.84L107.364 207.162C108.107 206.129 109.112 205.499 110.378 205.262C111.644 205.026 112.8 205.262 113.844 205.972L140.034 224.046C141.086 224.771 141.727 225.764 141.965 227.018C142.202 228.271 141.957 229.406 141.229 230.439L130.041 246.266V246.259ZM126.259 243.531L137.201 227.877L111.209 209.889L100.227 225.496L126.251 243.531H126.259Z" fill="white"/>
<path d="M243.195 257.88C237.067 278.885 173.087 294.537 157.89 278.753C142.694 262.961 161.079 199.939 182.403 194.719C203.727 189.499 249.323 236.876 243.195 257.88Z" fill="#FCAFB0"/>
<path d="M218.731 248.572L193.863 261.302C192.786 261.854 191.655 261.94 190.484 261.57C189.313 261.191 188.442 260.466 187.889 259.394L172.451 229.465C171.898 228.401 171.818 227.281 172.198 226.115C172.578 224.948 173.306 224.089 174.39 223.537L189.661 215.718C190.199 215.442 190.761 215.284 191.354 215.245C191.948 215.206 192.525 215.269 193.087 215.434L207.504 220.045C208.049 220.235 208.556 220.518 209.023 220.897C209.482 221.275 209.854 221.724 210.13 222.26L220.638 242.628C221.192 243.7 221.279 244.828 220.899 245.994C220.519 247.169 219.799 248.02 218.747 248.556L218.731 248.572ZM205.858 223.624L199.662 226.793C198.839 227.21 197.993 227.289 197.13 227.006C196.268 226.73 195.619 226.178 195.2 225.358L192.114 219.383L176.392 227.431L191.829 257.361L216.698 244.631L205.858 223.616V223.624ZM190.484 271.699C189.416 272.25 188.292 272.337 187.129 271.959C185.966 271.588 185.103 270.863 184.557 269.799L169.967 241.517C169.682 240.965 169.635 240.406 169.817 239.838C169.999 239.271 170.371 238.845 170.924 238.561C171.478 238.277 172.04 238.23 172.602 238.411C173.171 238.593 173.591 238.963 173.876 239.515L188.466 267.797L211.325 256.092C211.879 255.808 212.441 255.761 213.011 255.942C213.58 256.123 214.008 256.494 214.292 257.045C214.577 257.597 214.625 258.157 214.443 258.716C214.261 259.284 213.889 259.702 213.335 259.985L190.476 271.691L190.484 271.699Z" fill="white"/>
</g>
<path d="M312.553 372.098L210.24 400.763L52.0535 382.25L72.0743 259.553L210.24 272.073L292.532 253.808L312.553 372.098Z" stroke="#211815" stroke-width="5" stroke-linecap="round" stroke-linejoin="round"/>
<path d="M148.589 114.233C143.721 113.349 139.357 110.338 136.876 106.052C136.563 105.517 136.278 104.95 136.026 104.367C140.845 102.99 144.573 98.956 145.432 93.988C145.819 91.7319 145.709 88.7238 143.283 87.6457C141.146 86.7005 138.679 87.6551 137.111 89.1947C135.365 90.9087 134.492 93.3678 134.223 95.7524C133.912 98.489 134.324 101.303 135.314 103.864C135.339 103.929 135.365 103.987 135.389 104.052C130.343 105.248 124.94 103.282 121.793 99.0884C121.615 98.8502 121.237 99.1197 121.415 99.3579C124.59 103.595 130.06 105.717 135.264 104.559C135.367 104.535 135.47 104.511 135.573 104.486C137.604 109.169 141.694 112.756 146.608 114.234C147.233 114.419 147.866 114.569 148.504 114.689C148.801 114.748 148.88 114.284 148.589 114.233ZM135.984 91.4978C137.046 89.5193 138.925 87.8544 141.266 87.7523C142.405 87.7027 143.567 88.0701 144.284 88.9939C145.063 89.99 145.203 91.3463 145.13 92.5696C144.839 97.5611 141.438 101.99 136.725 103.666C136.432 103.773 136.135 103.863 135.84 103.947C134.238 100.01 133.955 95.2487 135.975 91.5036L135.984 91.4978Z" fill="black" stroke="black" stroke-width="3" stroke-linecap="round" stroke-linejoin="round"/>
<path d="M48.2525 227.079C44.1884 227.25 38.9383 227.336 36.5026 223.392C36.3087 223.079 36.1536 222.748 36.0292 222.404C38.339 222.443 40.6495 222.069 42.8069 221.26C44.5725 220.6 47.0073 219.431 47.189 217.276C47.3581 215.26 45.3136 214.1 43.564 213.853C39.427 213.279 35.1283 216.103 35.0256 220.481C35.0176 220.894 35.0557 221.289 35.1239 221.679C33.7755 221.587 32.4317 221.362 31.132 220.978C29.2975 220.442 27.5485 219.619 25.9794 218.532C24.445 217.469 22.948 216.078 22.1718 214.346C25.5132 214.05 28.8004 213.21 31.9311 211.728C33.9768 210.761 35.8988 209.524 37.6203 208.048C39.1732 206.711 41.0631 204.689 40.1464 202.463C39.2591 200.322 36.4967 200.205 34.5339 200.426C32.2936 200.681 30.1188 201.356 28.1319 202.409C24.4851 204.347 20.4673 208.156 21.0117 212.675C21.0592 213.048 21.1308 213.402 21.2324 213.751C16.3781 214.05 11.4275 213.21 6.83577 211.524C5.74534 211.122 4.67364 210.678 3.62065 210.191C3.22954 210.008 2.90131 210.599 3.29309 210.775C8.97121 213.394 15.279 214.8 21.4557 214.392C22.8071 217.786 26.6788 220.131 29.9253 221.282C31.6488 221.896 33.47 222.253 35.3072 222.353C35.7404 223.7 36.6564 224.876 37.8231 225.743C39.7051 227.139 42.009 227.651 44.3115 227.771C45.6252 227.838 46.9496 227.788 48.2599 227.729C48.6918 227.709 48.6784 227.043 48.2472 227.056L48.2525 227.079ZM27.1947 203.743C28.9202 202.629 30.8469 201.828 32.8599 201.382C34.6756 200.985 37.4327 200.511 38.9517 201.905C41.0183 203.798 38.5434 206.381 37.0633 207.65C35.5197 208.966 33.7949 210.073 31.9698 210.978C28.787 212.544 25.3848 213.425 21.9257 213.71C20.6064 209.639 24.0045 205.795 27.1947 203.743ZM36.5143 217.654C37.501 215.941 39.2893 214.869 41.2241 214.55C42.9108 214.266 45.6278 214.476 46.386 216.324C47.3081 218.572 44.1633 220.045 42.5368 220.644C40.3961 221.433 38.1177 221.78 35.8473 221.715C35.5564 220.352 35.8077 218.897 36.529 217.655L36.5143 217.654Z" fill="black" stroke="black" stroke-width="3" stroke-linecap="round" stroke-linejoin="round"/>
<path d="M319.881 263.315C321.476 263.742 323.078 264.161 324.71 264.433C327.568 264.912 330.529 264.904 333.21 263.705C334.879 262.962 336.319 261.77 337.219 260.233C339.494 260.608 341.827 260.66 344.102 260.373C348.392 259.836 353.783 258.011 356.36 254.223C363.818 256.393 371.933 256.371 379.606 254.701C380.137 254.583 379.894 253.781 379.362 253.892C377.937 254.201 376.504 254.466 375.064 254.657C368.98 255.473 362.681 255.164 356.81 253.487C357.032 253.09 357.224 252.671 357.379 252.229C359.284 246.844 355.4 241.077 351.456 237.723C349.308 235.891 346.826 234.471 344.146 233.559C341.798 232.757 338.379 232.154 336.71 234.537C334.975 237.016 336.747 240.01 338.283 242.07C339.981 244.343 342.004 246.381 344.249 248.124C347.676 250.787 351.486 252.7 355.496 253.973C354.071 255.885 351.855 257.18 349.684 258.07C347.462 258.982 345.099 259.519 342.699 259.674C341 259.784 339.294 259.703 337.618 259.446C337.818 258.99 337.965 258.512 338.069 258.004C339.147 252.612 334.642 247.985 329.414 247.565C327.206 247.389 324.385 248.257 324.046 250.773C323.676 253.458 326.342 255.547 328.329 256.842C330.751 258.416 333.483 259.497 336.326 260.079C336.082 260.461 335.802 260.822 335.477 261.16C331.415 265.331 325.006 263.808 320.065 262.499C319.541 262.359 319.342 263.176 319.866 263.315H319.881ZM355.983 253.252C351.826 251.964 347.897 249.971 344.427 247.183C342.44 245.587 340.631 243.762 339.095 241.732C337.618 239.775 335.299 235.942 338.342 234.184C340.587 232.882 343.836 234.206 345.955 235.192C348.296 236.281 350.437 237.781 352.254 239.613C355.599 242.997 358.723 248.617 355.991 253.252H355.983ZM336.762 259.291C333.963 258.754 331.26 257.71 328.853 256.165C327.022 254.988 323.566 252.332 325.308 249.824C326.741 247.757 330.13 248.242 332.117 249.044C334.399 249.964 336.296 251.758 337.035 254.127C337.574 255.841 337.485 257.695 336.762 259.291Z" fill="black" stroke="black" stroke-width="3" stroke-linecap="round" stroke-linejoin="round"/>
<path d="M242.17 155.593L238.909 137.485L377.544 149.568L380.465 168.18" stroke="#211815" stroke-width="5" stroke-linecap="round" stroke-linejoin="round"/>
<path d="M364.449 144.05C370.492 121.023 356.652 97.4764 333.538 91.457C310.423 85.4375 286.787 99.2246 280.745 122.251C274.702 145.278 288.542 168.825 311.656 174.844C334.771 180.864 358.407 167.076 364.449 144.05Z" fill="#D63C3D"/>
<path d="M311.294 159.263C307.7 157.702 304.629 155.571 302.073 152.854C299.518 150.144 297.58 147.102 296.26 143.735C294.939 140.368 294.291 136.803 294.306 133.04C294.322 129.269 295.095 125.569 296.635 121.925C298.174 118.28 300.268 115.167 302.933 112.584C305.598 110.001 308.583 108.045 311.88 106.714C315.185 105.383 318.678 104.725 322.366 104.741C326.055 104.757 329.696 105.541 333.29 107.102C336.885 108.663 339.964 110.786 342.519 113.479C345.082 116.173 347.028 119.191 348.356 122.535C349.684 125.878 350.356 129.419 350.364 133.159C350.372 136.898 349.606 140.59 348.075 144.234C346.535 147.878 344.425 151 341.737 153.614C339.049 156.221 336.049 158.209 332.736 159.564C329.423 160.919 325.914 161.6 322.218 161.6C318.522 161.6 314.873 160.824 311.278 159.263H311.294ZM313.294 154.422C315.303 153.535 317.194 152.331 318.967 150.826C320.741 149.312 322.515 147.356 324.297 144.947L312.599 139.877C312.091 142.634 311.903 145.216 312.021 147.625C312.146 150.033 312.568 152.299 313.302 154.422H313.294ZM308.442 151.42C308.036 149.415 307.871 147.332 307.934 145.177C308.004 143.022 308.27 140.693 308.739 138.197L299.565 134.22C299.846 137.841 300.651 140.93 301.995 143.489C303.331 146.056 305.48 148.694 308.442 151.42ZM318.874 155.872C322.202 156.205 325.453 155.92 328.618 155.024C331.782 154.129 334.65 152.64 337.213 150.548L328.141 146.611C326.656 148.623 325.172 150.39 323.679 151.927C322.187 153.464 320.585 154.779 318.874 155.864V155.872ZM299.909 130.037L309.606 134.244C309.958 133.056 310.317 132.018 310.669 131.115C311.02 130.211 311.38 129.34 311.747 128.476C312.193 127.431 312.599 126.512 312.974 125.735C313.349 124.959 313.81 124.095 314.365 123.137L304.605 118.906C303.894 119.786 303.316 120.594 302.886 121.323C302.456 122.051 302.011 122.962 301.55 124.048C301.097 125.117 300.745 126.092 300.495 126.987C300.245 127.882 300.05 128.896 299.909 130.029V130.037ZM313.458 135.908L326.524 141.572C327.211 140.336 327.743 139.314 328.118 138.522C328.485 137.73 328.852 136.906 329.212 136.042C329.563 135.203 329.884 134.402 330.173 133.634C330.462 132.865 330.806 131.804 331.212 130.441L318.147 124.777C317.436 126.005 316.897 126.987 316.537 127.724C316.178 128.461 315.818 129.245 315.467 130.085C315.107 130.94 314.771 131.78 314.474 132.604C314.177 133.428 313.834 134.529 313.451 135.9L313.458 135.908ZM330.243 143.188L339.964 147.403C340.651 146.508 341.237 145.668 341.706 144.868C342.183 144.068 342.644 143.141 343.089 142.071C343.55 140.978 343.886 140.019 344.097 139.203C344.308 138.379 344.496 137.405 344.652 136.288L334.994 132.097C334.439 133.626 334.033 134.767 333.759 135.527C333.486 136.288 333.212 137.001 332.931 137.674C332.548 138.57 332.157 139.409 331.759 140.194C331.36 140.97 330.853 141.976 330.243 143.204V143.188ZM335.877 128.088L345.012 132.049C344.871 128.619 344.027 125.434 342.48 122.495C340.933 119.556 338.792 117.037 336.064 114.937C336.479 116.926 336.658 118.97 336.619 121.069C336.572 123.168 336.33 125.514 335.877 128.088ZM320.397 121.378L332.157 126.48C332.642 124.119 332.79 121.663 332.587 119.12C332.384 116.577 331.915 114.224 331.165 112.069C329.446 112.632 327.75 113.63 326.078 115.064C324.414 116.498 322.515 118.597 320.397 121.378ZM307.371 115.729L316.608 119.73C317.998 117.71 319.405 115.959 320.819 114.478C322.234 112.996 323.843 111.665 325.641 110.493C322.234 109.93 318.999 110.089 315.928 110.96C312.857 111.832 310.012 113.424 307.379 115.729H307.371Z" fill="white"/>
<path d="M119.461 310.905C116.107 310.541 113.598 309.297 111.934 307.172C110.245 305.011 109.4 301.882 109.4 297.786V287.708C109.4 285.747 110.39 284.851 112.371 285.02C114.351 285.189 115.341 286.259 115.336 288.231V298.994C115.336 301.273 115.676 302.947 116.365 304.018C117.03 305.042 118.063 305.626 119.461 305.769C120.859 305.912 121.892 305.544 122.562 304.653C123.295 303.7 123.664 302.087 123.664 299.814V292.916L123.669 288.866C123.669 286.945 124.625 286.07 126.537 286.234C128.449 286.398 129.405 287.442 129.4 289.373L129.391 299.737C129.391 303.931 128.551 306.942 126.882 308.759C125.261 310.557 122.781 311.268 119.451 310.91L119.461 310.905Z" fill="#211815"/>
<path d="M134.924 311.725C134.087 311.64 133.532 311.362 133.259 310.9C132.987 310.438 133.046 309.861 133.433 309.18L139.092 299.537L133.859 289.617C133.472 288.866 133.418 288.28 133.69 287.867C133.963 287.455 134.518 287.281 135.36 287.345L137.64 287.529C138.16 287.574 138.631 287.743 139.052 288.041C139.474 288.339 139.786 288.727 139.989 289.204L141.347 292.221C141.689 292.957 142.239 294.224 143.012 296.033C143.082 296.192 143.136 296.322 143.181 296.411L143.314 296.421C143.77 295.183 144.316 293.886 144.955 292.529L146.149 289.746C146.333 289.299 146.64 288.951 147.071 288.712C147.502 288.468 147.978 288.369 148.503 288.414L150.411 288.568C151.273 288.637 151.843 288.906 152.111 289.373C152.384 289.84 152.324 290.437 151.938 291.157L146.679 300.502L152.274 311.049C152.681 311.844 152.75 312.451 152.478 312.868C152.205 313.286 151.635 313.45 150.778 313.36L150.233 313.305L148.429 313.122C147.953 313.072 147.512 312.908 147.101 312.62C146.694 312.336 146.387 311.973 146.184 311.531L144.524 307.918C144.092 306.973 143.473 305.542 142.66 303.638L142.526 303.623C141.912 305.065 141.332 306.372 140.787 307.55L139.285 310.696C139.082 311.138 138.77 311.466 138.349 311.685C137.928 311.904 137.457 311.988 136.936 311.934L134.929 311.73L134.924 311.725Z" fill="#211815"/>
<path d="M160.884 315.973C158.558 315.749 157.395 314.564 157.4 312.419L157.443 291.971C157.443 289.826 158.617 288.846 160.949 289.02C163.28 289.193 164.406 290.358 164.4 292.513L164.373 302.793L164.347 313.073C164.341 315.228 163.189 316.193 160.884 315.968V315.973Z" fill="#211815"/>
<g clip-path="url(#clip0_1_30788)">
<path d="M84.0584 361.547C83.0142 361.419 82.2573 361 81.7968 360.284C81.3362 359.568 81.2724 358.688 81.6098 357.644L90.4738 328.188C90.7201 327.468 91.1259 326.911 91.6958 326.528C92.2658 326.145 92.9178 326.004 93.6565 326.1L98.6402 326.765C99.3789 326.866 100.031 327.18 100.601 327.714C101.171 328.247 101.577 328.909 101.823 329.693L110.682 361.228C111.02 362.345 110.961 363.202 110.5 363.799C110.039 364.397 109.283 364.629 108.238 364.501L105.607 364.178C104.837 364.082 104.171 363.763 103.601 363.22C103.031 362.678 102.657 361.998 102.47 361.191L101.084 355.227L96.0093 354.593L90.9344 353.959L89.5482 359.6C89.3658 360.366 88.9874 360.954 88.4174 361.36C87.8475 361.766 87.1772 361.921 86.4112 361.829L84.0584 361.542V361.547ZM92.5029 347.366L99.5157 348.26L98.777 345.068C98.4396 343.746 97.9608 341.621 97.3453 338.689C96.7617 336.09 96.3285 334.18 96.0549 332.962L95.868 332.939C95.7768 333.322 95.6536 333.911 95.4986 334.708C95.0974 336.491 94.7919 337.832 94.5776 338.721C94.4864 339.136 94.345 339.724 94.1626 340.486C93.7614 342.241 93.4559 343.527 93.2416 344.352L92.5029 347.362V347.366Z" fill="#D63C3D"/>
<path d="M120.187 366.654C117.816 366.362 115.91 365.3 114.464 363.463C113.078 361.725 112.39 359.651 112.39 357.239C112.39 354.27 113.543 352.118 115.85 350.777C118.158 349.441 121.865 348.808 126.967 348.876C126.784 346.482 125.458 345.123 123 344.809C121.892 344.668 120.647 344.781 119.261 345.155C118.308 345.52 117.433 345.538 116.63 345.206C115.768 344.9 115.107 344.243 114.647 343.24C113.726 341.261 114.14 339.88 115.891 339.1C118.841 338.056 121.732 337.719 124.564 338.088C131.636 339.018 135.174 343.692 135.174 352.113V364.306C135.174 365.441 134.819 366.271 134.112 366.8C133.437 367.302 132.53 367.48 131.39 367.343C130.528 367.238 129.78 366.91 129.151 366.362C128.522 365.815 128.098 365.104 127.883 364.233V364.137L127.701 364.115C125.271 366.121 122.763 366.969 120.182 366.654H120.187ZM123 360.271C124.354 360.439 125.676 359.874 126.967 358.575V354.143C124.568 354.165 122.799 354.494 121.659 355.132C120.674 355.693 120.182 356.491 120.182 357.535C120.182 359.131 121.121 360.043 122.995 360.275L123 360.271Z" fill="#D63C3D"/>
<path d="M145.371 370.243C143 369.951 141.094 368.898 139.649 367.07C138.263 365.346 137.574 363.285 137.574 360.891C137.574 357.946 138.728 355.812 141.035 354.485C143.342 353.162 147.049 352.538 152.152 352.611C151.969 350.235 150.642 348.89 148.185 348.571C147.077 348.43 145.832 348.539 144.446 348.913C143.493 349.273 142.617 349.291 141.815 348.963C140.953 348.658 140.292 348.005 139.831 347.011C138.91 345.046 139.325 343.678 141.076 342.903C144.026 341.868 146.917 341.54 149.749 341.909C156.821 342.839 160.359 347.481 160.359 355.834V367.931C160.359 369.058 160.003 369.883 159.297 370.403C158.622 370.9 157.714 371.077 156.574 370.936C155.713 370.831 154.965 370.508 154.336 369.96C153.706 369.418 153.282 368.711 153.068 367.849V367.753L152.886 367.731C150.455 369.719 147.948 370.558 145.367 370.243H145.371ZM148.185 363.91C149.539 364.078 150.861 363.518 152.152 362.227V357.827C149.753 357.845 147.984 358.169 146.844 358.803C145.859 359.355 145.367 360.152 145.367 361.183C145.367 362.765 146.306 363.673 148.18 363.905L148.185 363.91Z" fill="#D63C3D"/>
<path d="M174.296 373.782C170.79 373.353 167.498 372.003 164.424 369.737C162.455 367.954 162.227 366.19 163.731 364.453C164.502 363.586 165.382 363.153 166.385 363.149C167.384 363.149 168.391 363.559 169.408 364.393C171.255 365.552 172.946 366.226 174.483 366.418C177.465 366.792 178.956 365.939 178.956 363.86C178.956 362.998 178.573 362.232 177.802 361.557C177.31 361.11 176.28 360.44 174.711 359.537C174.433 359.405 174.232 359.3 174.109 359.223L169.727 356.742C167.698 355.648 166.084 354.275 164.885 352.611C163.471 350.632 162.765 348.439 162.765 346.032C162.765 342.981 163.932 340.583 166.271 338.841C168.637 337.04 171.624 336.383 175.222 336.867C178.359 337.286 181.263 338.554 183.94 340.665C185.568 342.252 185.723 343.82 184.4 345.366C183.725 346.168 182.946 346.592 182.07 346.638C181.195 346.684 180.292 346.355 179.371 345.662C178.108 344.892 176.726 344.404 175.217 344.203C173.927 344.034 172.919 344.157 172.194 344.572C171.469 344.992 171.109 345.68 171.109 346.638C171.109 347.472 171.537 348.248 172.399 348.968C172.983 349.428 174.123 350.122 175.814 351.043C176.029 351.166 176.197 351.252 176.321 351.298L180.611 353.628C185.134 356.09 187.391 359.633 187.391 364.252C187.391 367.343 186.252 369.797 183.976 371.62C181.514 373.554 178.286 374.274 174.287 373.786L174.296 373.782Z" fill="#D63C3D"/>
</g>
<defs>
<clipPath id="clip0_1_30788">
<rect width="105.999" height="47.8539" fill="white" transform="translate(81.4004 326.073)"/>
</clipPath>
</defs>
</svg>
