<svg width="92" height="78" viewBox="0 0 92 78" fill="none" xmlns="http://www.w3.org/2000/svg">
<path d="M42.2684 60.509H33.2063C32.3186 62.8578 31.8054 63.7963 30.8807 65.2758H41.5934V76.8947H28.2777V68.1933C26.3497 69.9363 25.5822 70.5559 24.9488 70.9813L24.1396 70.1167C26.9415 67.5922 28.2869 65.9971 30.7189 60.5136H25.2123V58.937H42.2684V60.509ZM38.8701 75.3181V66.9542H30.9917V75.3181H38.8701Z" fill="white"/>
<path d="M80.7586 60.2269H77.9382C77.7071 59.8616 76.8841 58.6179 76.283 58.0215L74.8867 58.3498C75.1872 58.9092 75.4508 59.6073 75.6866 60.2269H72.2051V61.7989H80.7586V60.2269Z" fill="white"/>
<path d="M79.8674 63.468H73.168V65.0215H79.8674V63.468Z" fill="white"/>
<path d="M72.5664 77.0614H80.2229V70.2603H72.5664V77.0614ZM75.1325 71.8554H77.7632V75.8131H75.1325V71.8554Z" fill="white"/>
<path d="M79.8674 66.8528H73.168V68.3832H79.8674V66.8528Z" fill="white"/>
<path d="M87.4486 64.3421V58.5442H85.012V64.3421H81.1514V66.0019H85.012V77.0382H87.4486V66.0019H91.3231V64.3421H87.4486Z" fill="white"/>
<path d="M10.4861 75.7853C7.94319 75.7853 5.51585 74.8098 3.7959 73.0991C4.13342 72.1466 4.45244 71.3976 4.94253 67.6526H2.37648C2.85271 67.1532 4.67437 66.0852 5.07661 62.3679H0.43461V63.6856H2.75561C2.1638 66.3071 0.601057 67.1949 0.0647297 67.7589V68.9842H2.714C2.31638 72.2252 1.39168 74.2272 0 76.0073L0.864597 76.9551C1.7107 76.2939 2.6354 75.2675 2.94518 74.7913C4.44319 76.5991 7.07397 77.1955 10.6526 77.1955C15.7662 77.1955 18.6836 77.1863 19.5482 77.1724L19.8996 75.8824C19.3956 75.8686 16.6169 75.7853 10.4861 75.7853Z" fill="white"/>
<path d="M6.19986 68.004C5.96868 69.5436 5.5988 70.8197 4.90527 72.1605L5.9918 73.1777C7.56841 71.2913 8.40527 68.3923 8.51623 64.4855H9.97264C9.94952 66.0852 9.90329 67.8421 9.82931 69.1044C9.75533 70.3666 9.68598 72.4102 9.61663 72.5812C9.54727 72.7523 9.43169 72.8818 9.26524 72.9696C9.0988 73.0575 8.79364 73.1869 7.82271 73.3672L8.18334 74.3705C9.24212 74.3243 10.0975 74.2966 10.5413 74.0839C10.9852 73.8712 11.295 73.5753 11.4753 73.1962C11.6556 72.8124 11.7758 71.3005 11.8914 69.4188C12.007 67.537 12.0116 66.5106 12.0301 63.3065H8.55322C8.58096 62.4234 8.59946 61.3877 8.59946 61.3877H12.0393V60.0515H9.87554C9.64899 59.5661 9.20976 58.7986 8.47 57.823L7.04133 58.1651C7.32799 58.6737 7.71174 59.4551 7.9198 60.0515H5.25204V61.3877H6.58823C6.57436 64.5826 6.48189 66.1546 6.19986 68.004Z" fill="white"/>
<path d="M2.79301 61.4758L4.38812 60.6805C3.56514 59.6356 2.56184 58.7572 1.6695 58.1838L0.72168 58.7895C1.53079 59.6911 1.95616 60.2136 2.79301 61.4758Z" fill="white"/>
<path d="M15.5726 59.677C15.7529 59.3673 15.9378 59.0436 16.0812 58.6367L14.4352 58.0496C13.7925 59.506 13.2331 60.4538 12.3916 61.36L13.2423 62.0535C13.9359 61.716 14.3658 61.4016 14.8005 60.9901H19.7985V59.677H15.5726Z" fill="white"/>
<path d="M17.6019 67.9997C17.6019 67.9997 17.6019 67.4356 17.6019 67.2183C17.6019 66.2242 19.3958 65.4059 19.3681 62.9092H13.5517V64.1529H16.7095C16.6171 65.1839 15.4612 65.8359 15.4612 66.9224C15.4612 67.6529 15.4612 67.995 15.4612 67.995H12.7842V69.2156H15.4612V72.8775C15.4612 73.1919 15.267 73.2797 14.9064 73.3722C14.4579 73.4831 14.2128 73.5525 13.302 73.6727L13.7043 74.7454C15.1514 74.7777 16.1593 74.676 16.7373 74.4495C17.3152 74.2183 17.6019 73.5941 17.6019 72.5816V69.2156H20.0015V67.995H17.6019V67.9997Z" fill="white"/>
<path d="M59.4489 63.8799C59.9297 63.2465 60.2904 62.123 60.3135 60.4261H62.8056V63.7504C62.8056 64.1712 62.9581 64.5457 63.2587 64.8786C63.5592 65.2115 63.8505 65.3502 64.2758 65.3779L66.9714 65.5166L67.1702 64.2822C66.6801 64.2267 65.5334 64.0556 65.2976 63.8707C65.1497 63.7551 65.0896 63.6117 65.0896 63.4592V58.8264H58.3716V59.9407C58.4364 62.3542 57.8214 63.4222 56.1523 64.6289L56.8829 65.5582C58.0017 65.156 58.9264 64.5642 59.4489 63.8799Z" fill="white"/>
<path d="M55.1075 63.468H48.7363V65.0215H55.1075V63.468Z" fill="white"/>
<path d="M48.1348 77.0614H55.4584V70.2603H48.1348V77.0614ZM50.4558 71.8554H53.0865V75.8131H50.4558V71.8554Z" fill="white"/>
<path d="M55.1075 66.8528H48.7363V68.3832H55.1075V66.8528Z" fill="white"/>
<path d="M56.0683 60.2269H53.2479C53.0167 59.8616 52.1938 58.6179 51.5927 58.0215L50.1964 58.3498C50.4969 58.9092 50.7605 59.6073 51.0009 60.2269H47.8477V61.7989H56.0683V60.2269Z" fill="white"/>
<path d="M67.4936 76.0213C66.6428 75.8364 64.9969 75.2076 63.3509 74.0841C63.3509 74.0794 63.3555 74.0794 63.3601 74.0748C66.1943 71.088 66.3469 67.5973 66.3331 66.6633H57.1693V68.1891H63.9335C63.6884 69.4374 63.1613 71.0464 61.8529 72.4242C61.7697 72.5121 61.6911 72.5907 61.6078 72.6739C61.3165 72.3919 61.0345 72.096 60.7663 71.7723C59.7076 70.5101 59.2961 69.8628 58.8152 68.9705L56.9612 69.8212C57.6732 71.0834 58.1541 71.9203 59.199 73.0207C59.5088 73.3489 59.8463 73.6541 60.2023 73.9407C58.7274 75.1012 57.479 75.5266 56.1475 75.8965L56.6838 77.1171C57.6778 77.0477 59.9572 76.7195 62.0563 75.203C63.9704 76.2987 65.977 76.9368 67.0682 77.1032L67.4936 76.0213Z" fill="white"/>
<path d="M31.8983 25.2554L24.3157 34.2897C22.1935 36.8188 18.4161 37.1471 15.8871 35.0295C13.3626 32.9073 13.0251 29.1299 15.1473 26.6008L33.9511 4.19531H20.7001L7.36132 20.0724C1.65129 26.8829 2.539 37.087 9.3633 42.8062C16.1691 48.5209 26.3732 47.6378 32.0878 40.8135L39.6658 31.7838L31.8983 25.2554Z" fill="white"/>
<path d="M71.6006 49.991L87.7274 30.7803L79.9506 24.252L58.3496 49.991H71.6006Z" fill="white"/>
<path d="M35.7395 20.6774L33.9502 22.8135L41.7269 29.3373L43.5162 27.2058C45.6384 24.6768 49.4158 24.3485 51.9449 26.4661C58.7599 32.19 68.9548 31.293 74.6787 24.478L76.9627 21.7455L69.186 15.2263L66.8973 17.9542C64.7751 20.4832 60.9977 20.8115 58.464 18.6939C55.4495 16.1603 51.7692 14.9258 48.1074 14.9258C43.5024 14.9212 38.9205 16.8769 35.7395 20.6774Z" fill="url(#paint0_radial_2034_3643)"/>
<path d="M58.4695 18.6898C55.945 16.5676 55.6122 12.7856 57.7343 10.2519L60.0184 7.52402L52.2416 1.00024L49.953 3.72811C44.2337 10.5432 45.126 20.738 51.9411 26.4619C54.4655 28.5887 54.7984 32.3708 52.6762 34.8906L40.0078 49.9817L53.2634 49.9863L60.4576 41.4143C66.1769 34.6039 65.2799 24.4091 58.4695 18.6898Z" fill="#B81C22"/>
<defs>
<radialGradient id="paint0_radial_2034_3643" cx="0" cy="0" r="1" gradientUnits="userSpaceOnUse" gradientTransform="translate(55.1896 22.6165) rotate(-50.014) scale(13.3671 16.7374)">
<stop offset="0.1022" stop-color="#8D1D22"/>
<stop offset="0.2468" stop-color="#951D22"/>
<stop offset="0.8763" stop-color="#B81C22"/>
</radialGradient>
</defs>
</svg>
