<svg width="56" height="56" viewBox="0 0 56 56" fill="none" xmlns="http://www.w3.org/2000/svg">
<path d="M27.5005 30.4878C26.4655 30.4878 25.4537 30.1809 24.5931 29.6058C23.7325 29.0308 23.0617 28.2135 22.6657 27.2572C22.2696 26.301 22.1659 25.2487 22.3678 24.2336C22.5698 23.2184 23.0682 22.286 23.8001 21.5541C24.532 20.8222 25.4644 20.3238 26.4796 20.1218C27.4947 19.9199 28.547 20.0236 29.5032 20.4196C30.4595 20.8157 31.2768 21.4865 31.8518 22.3471C32.4269 23.2077 32.7338 24.2195 32.7338 25.2545C32.7338 26.6425 32.1824 27.9736 31.201 28.955C30.2196 29.9364 28.8885 30.4878 27.5005 30.4878ZM30.4443 30.4878H24.5568C23.9798 30.4863 23.41 30.6173 22.8916 30.8707C22.3731 31.1241 21.9198 31.4931 21.5664 31.9494C21.2176 32.3935 20.9759 32.912 20.8598 33.4646C20.7438 34.0172 20.7566 34.5892 20.8973 35.136L23.1738 44.1073C23.3831 44.9185 23.8567 45.6369 24.5197 46.1489C25.1827 46.661 25.9974 46.9376 26.8352 46.9352H28.1659C29.0053 46.9397 29.8221 46.664 30.4871 46.1518C31.152 45.6396 31.6269 44.9201 31.8367 44.1073L34.1131 35.136C34.2538 34.5892 34.2667 34.0172 34.1506 33.4646C34.0346 32.912 33.7928 32.3935 33.444 31.9494C33.0897 31.4919 32.6349 31.1221 32.1147 30.8686C31.5945 30.6151 31.0229 30.4848 30.4443 30.4878ZM37.6381 30.114C37.5393 30.4979 37.597 30.9053 37.7986 31.2467C38.0001 31.5881 38.3289 31.8354 38.7128 31.9344C38.835 31.9655 38.9605 31.9812 39.0866 31.9811C39.4179 31.9809 39.7397 31.8706 40.0015 31.6677C40.2634 31.4647 40.4504 31.1805 40.5332 30.8597C41.0446 28.8717 41.0944 26.7931 40.6788 24.7828C40.2632 22.7726 39.3932 20.8841 38.1355 19.2618C36.8777 17.6396 35.2654 16.3266 33.4221 15.4233C31.5788 14.52 29.5533 14.0504 27.5005 14.0504C25.4478 14.0504 23.4223 14.52 21.579 15.4233C19.7357 16.3266 18.1234 17.6396 16.8656 19.2618C15.6079 20.8841 14.7379 22.7726 14.3223 24.7828C13.9067 26.7931 13.9565 28.8717 14.4679 30.8597C14.5145 31.0524 14.599 31.234 14.7165 31.3937C14.8339 31.5535 14.9819 31.6883 15.152 31.7903C15.322 31.8923 15.5106 31.9594 15.7069 31.9879C15.9031 32.0163 16.103 32.0054 16.295 31.9558C16.487 31.9062 16.6672 31.819 16.8251 31.6991C16.9831 31.5792 17.1156 31.4291 17.215 31.2575C17.3144 31.086 17.3786 30.8963 17.404 30.6997C17.4294 30.5031 17.4155 30.3033 17.363 30.1121C16.966 28.5661 16.9278 26.9497 17.2514 25.3866C17.5751 23.8236 18.2519 22.3552 19.2302 21.0939C20.2085 19.8326 21.4624 18.8118 22.8958 18.1096C24.3293 17.4073 25.9043 17.0422 27.5005 17.0422C29.0968 17.0422 30.6718 17.4073 32.1053 18.1096C33.5387 18.8118 34.7926 19.8326 35.7709 21.0939C36.7492 22.3552 37.426 23.8236 37.7497 25.3866C38.0733 26.9497 38.0351 28.5661 37.6381 30.1121V30.114ZM27.5005 8.05957C23.3249 8.0591 19.26 9.40332 15.9079 11.8932C12.5558 14.3831 10.0946 17.8863 8.88871 21.884C7.68284 25.8818 7.79642 30.1616 9.21262 34.0898C10.6288 38.018 13.2724 41.3857 16.7518 43.6943C17.082 43.9138 17.4858 43.9932 17.8745 43.9151C18.2632 43.8369 18.6049 43.6076 18.8246 43.2775C18.9332 43.1139 19.0085 42.9305 19.0462 42.7378C19.084 42.5451 19.0834 42.3469 19.0445 42.1544C19.0056 41.9619 18.9292 41.779 18.8197 41.6161C18.7101 41.4531 18.5695 41.3134 18.4059 41.2047C15.462 39.2513 13.2253 36.4019 12.0271 33.0782C10.8288 29.7546 10.7327 26.1334 11.7528 22.7509C12.773 19.3683 14.8552 16.4041 17.6913 14.2972C20.5274 12.1903 23.9666 11.0526 27.4996 11.0526C31.0327 11.0526 34.4718 12.1903 37.3079 14.2972C40.144 16.4041 42.2262 19.3683 43.2464 22.7509C44.2666 26.1334 44.1704 29.7546 42.9721 33.0782C41.7739 36.4019 39.5372 39.2513 36.5933 41.2047C36.2707 41.4275 36.0486 41.7681 35.9746 42.1531C35.9007 42.5381 35.9809 42.9367 36.1981 43.2632C36.4152 43.5896 36.7518 43.8177 37.1355 43.8983C37.5191 43.9789 37.9191 43.9057 38.2493 43.6943C41.7287 41.3857 44.3723 38.018 45.7885 34.0898C47.2047 30.1616 47.3182 25.8818 46.1124 21.884C44.9065 17.8863 42.4453 14.3831 39.0932 11.8932C35.741 9.40332 31.6762 8.0591 27.5005 8.05957Z" fill="white"/>
</svg>
