<svg width="56" height="56" viewBox="0 0 56 56" fill="none" xmlns="http://www.w3.org/2000/svg">
<path d="M46.1176 18.0219C33.6909 12.6352 21.3976 11.6485 9.2376 15.0619C8.9176 15.1685 8.5976 15.3285 8.2776 15.5419C8.01094 15.7552 7.77094 16.0219 7.5576 16.3419C7.3976 16.6619 7.29094 16.9819 7.2376 17.3019C7.18427 17.6752 7.21094 18.0485 7.3176 18.4219C7.42427 18.7419 7.58427 19.0619 7.7976 19.3819C8.06427 19.6485 8.33094 19.8619 8.5976 20.0219C8.9176 20.1819 9.26427 20.2885 9.6376 20.3419C10.0109 20.3952 10.3843 20.3685 10.7576 20.2619C21.6376 17.2219 32.7043 18.1285 43.9576 22.9819C44.6509 23.3019 45.3443 23.3285 46.0376 23.0619C46.7309 22.7419 47.2376 22.2619 47.5576 21.6219C47.8243 20.9285 47.8243 20.2352 47.5576 19.5419C47.2909 18.8485 46.8109 18.3419 46.1176 18.0219ZM43.1576 28.5819C39.1043 26.1285 34.1443 24.5552 28.2776 23.8619C22.2509 23.1685 16.4643 23.5685 10.9176 25.0619C10.5443 25.1685 10.2243 25.3285 9.9576 25.5419C9.6376 25.7552 9.3976 26.0219 9.2376 26.3419C9.0776 26.6619 8.97094 27.0085 8.9176 27.3819C8.86427 27.7552 8.89094 28.1019 8.9976 28.4219C9.05094 28.7952 9.21094 29.1152 9.4776 29.3819C9.69094 29.7019 9.9576 29.9419 10.2776 30.1019C10.5976 30.2619 10.9443 30.3685 11.3176 30.4219C11.6909 30.4752 12.0376 30.4485 12.3576 30.3419C12.3576 30.3419 12.3576 30.3419 12.4376 30.3419C17.2376 28.9552 22.3043 28.5819 27.6376 29.2219C32.7576 29.8085 36.9976 31.1419 40.3576 33.2219C40.9443 33.5952 41.6109 33.7019 42.3576 33.5419C43.1043 33.3819 43.6643 32.9819 44.0376 32.3419C44.4109 31.7019 44.5176 31.0085 44.3576 30.2619C44.1976 29.5685 43.7976 29.0085 43.1576 28.5819ZM27.3176 34.2619C22.1976 33.4619 17.3443 33.5952 12.7576 34.6619C12.3843 34.7685 12.0376 34.9285 11.7176 35.1419C11.4509 35.3019 11.2109 35.5419 10.9976 35.8619C10.8376 36.1819 10.7043 36.5285 10.5976 36.9019C10.5443 37.2219 10.5709 37.5685 10.6776 37.9419C10.7309 38.3152 10.8643 38.6352 11.0776 38.9019C11.2909 39.2219 11.5576 39.4619 11.8776 39.6219C12.1976 39.8352 12.5176 39.9685 12.8376 40.0219C13.2109 40.0752 13.5843 40.0485 13.9576 39.9419C17.9043 39.0352 22.0909 38.9285 26.5176 39.6219C30.4643 40.2619 33.2909 41.2485 34.9976 42.5819L35.3176 42.8219C35.9043 43.1952 36.5443 43.3285 37.2376 43.2219C37.9309 43.0619 38.4909 42.6885 38.9176 42.1019C39.3443 41.5152 39.5043 40.8752 39.3976 40.1819C39.2909 39.4885 38.9709 38.9019 38.4376 38.4219C35.9843 36.4485 32.2776 35.0619 27.3176 34.2619Z" fill="white"/>
</svg>
