<svg width="56" height="56" viewBox="0 0 56 56" fill="none" xmlns="http://www.w3.org/2000/svg">
<path d="M38.9091 12C40.1029 12 41.2851 12.2227 42.388 12.6555C43.491 13.0882 44.4932 13.7225 45.3373 14.5221C46.1815 15.3218 46.8511 16.271 47.308 17.3158C47.7649 18.3605 48 19.4803 48 20.6111V34.3889C48 35.5197 47.7649 36.6395 47.308 37.6842C46.8511 38.729 46.1815 39.6782 45.3373 40.4779C44.4932 41.2775 43.491 41.9118 42.388 42.3445C41.2851 42.7773 40.1029 43 38.9091 43H17.0909C15.8971 43 14.7149 42.7773 13.612 42.3445C12.509 41.9118 11.5068 41.2775 10.6627 40.4779C8.95779 38.863 8 36.6727 8 34.3889V20.6111C8 18.3273 8.95779 16.137 10.6627 14.5221C12.3675 12.9072 14.6799 12 17.0909 12H38.9091ZM22.5455 22.3333V32.6667C22.5457 32.9712 22.6312 33.2703 22.7933 33.5333C22.9554 33.7964 23.1882 34.014 23.468 34.1641C23.7478 34.3141 24.0646 34.3912 24.3861 34.3874C24.7077 34.3836 25.0224 34.2992 25.2982 34.1426L34.3891 28.9759C34.6579 28.8228 34.8803 28.6064 35.0348 28.3478C35.1892 28.0892 35.2703 27.7971 35.2703 27.5C35.2703 27.2029 35.1892 26.9108 35.0348 26.6522C34.8803 26.3936 34.6579 26.1772 34.3891 26.0241L25.2982 20.8574C25.0224 20.7008 24.7077 20.6164 24.3861 20.6126C24.0646 20.6088 23.7478 20.6859 23.468 20.8359C23.1882 20.986 22.9554 21.2036 22.7933 21.4667C22.6312 21.7297 22.5457 22.0288 22.5455 22.3333Z" fill="white"/>
</svg>
