<svg width="56" height="56" viewBox="0 0 56 56" fill="none" xmlns="http://www.w3.org/2000/svg">
<path d="M20.2857 9.84619H35.4057C41.1657 9.84619 45.8457 14.5262 45.8457 20.2862V35.4062C45.8457 38.1751 44.7458 40.8305 42.7879 42.7884C40.83 44.7463 38.1746 45.8462 35.4057 45.8462H20.2857C14.5257 45.8462 9.8457 41.1662 9.8457 35.4062V20.2862C9.8457 17.5173 10.9456 14.8619 12.9035 12.904C14.8614 10.9461 17.5168 9.84619 20.2857 9.84619ZM19.9257 13.4462C18.2071 13.4462 16.5589 14.1289 15.3437 15.3441C14.1284 16.5594 13.4457 18.2076 13.4457 19.9262V35.7662C13.4457 39.3482 16.3437 42.2462 19.9257 42.2462H35.7657C37.4843 42.2462 39.1325 41.5635 40.3478 40.3482C41.563 39.133 42.2457 37.4848 42.2457 35.7662V19.9262C42.2457 16.3442 39.3477 13.4462 35.7657 13.4462H19.9257ZM37.2957 16.1462C37.8924 16.1462 38.4647 16.3832 38.8867 16.8052C39.3087 17.2272 39.5457 17.7995 39.5457 18.3962C39.5457 18.9929 39.3087 19.5652 38.8867 19.9872C38.4647 20.4091 37.8924 20.6462 37.2957 20.6462C36.699 20.6462 36.1267 20.4091 35.7047 19.9872C35.2828 19.5652 35.0457 18.9929 35.0457 18.3962C35.0457 17.7995 35.2828 17.2272 35.7047 16.8052C36.1267 16.3832 36.699 16.1462 37.2957 16.1462ZM27.8457 18.8462C30.2327 18.8462 32.5218 19.7944 34.2097 21.4822C35.8975 23.1701 36.8457 25.4592 36.8457 27.8462C36.8457 30.2331 35.8975 32.5223 34.2097 34.2102C32.5218 35.898 30.2327 36.8462 27.8457 36.8462C25.4588 36.8462 23.1696 35.898 21.4817 34.2102C19.7939 32.5223 18.8457 30.2331 18.8457 27.8462C18.8457 25.4592 19.7939 23.1701 21.4817 21.4822C23.1696 19.7944 25.4588 18.8462 27.8457 18.8462ZM27.8457 22.4462C26.4135 22.4462 25.04 23.0151 24.0273 24.0278C23.0146 25.0405 22.4457 26.414 22.4457 27.8462C22.4457 29.2784 23.0146 30.6519 24.0273 31.6646C25.04 32.6773 26.4135 33.2462 27.8457 33.2462C29.2779 33.2462 30.6514 32.6773 31.6641 31.6646C32.6768 30.6519 33.2457 29.2784 33.2457 27.8462C33.2457 26.414 32.6768 25.0405 31.6641 24.0278C30.6514 23.0151 29.2779 22.4462 27.8457 22.4462Z" fill="white"/>
</svg>
