<svg width="56" height="56" viewBox="0 0 56 56" fill="none" xmlns="http://www.w3.org/2000/svg">
<path d="M14.156 19.0621C14.1792 18.8315 14.1482 18.5988 14.0653 18.3824C13.9824 18.166 13.8501 17.972 13.6788 17.816L10.1413 13.5228V12.8809H21.1213L29.609 31.6385L37.0704 12.8809H47.5391V13.5228L44.5147 16.4411C44.3866 16.5401 44.2877 16.6719 44.2287 16.8227C44.1696 16.9735 44.1527 17.1374 44.1796 17.2971V38.7608C44.1527 38.9205 44.1696 39.0845 44.2287 39.2352C44.2877 39.386 44.3866 39.5179 44.5147 39.6168L47.469 42.537V43.1809H32.6163V42.5389L35.6747 39.5468C35.9758 39.2438 35.9758 39.1547 35.9758 38.6927V21.3421L27.4691 43.1089H26.3215L16.4172 21.3421V35.9316C16.3357 36.5452 16.5384 37.1625 16.9664 37.6057L20.9451 42.4688V43.1089H9.66406V42.4688L13.6409 37.6057C13.8514 37.3861 14.0075 37.1204 14.097 36.8297C14.1864 36.539 14.2066 36.2315 14.156 35.9316V19.0621Z" fill="white"/>
</svg>
